<?xml version="1.0" encoding="utf-8"?>
<!-- Generator: Adobe Illustrator 26.5.2, SVG Export Plug-In . SVG Version: 6.00 Build 0)  -->
<svg version="1.1" id="Thomas_More" xmlns="http://www.w3.org/2000/svg" xmlns:xlink="http://www.w3.org/1999/xlink" x="0px"
	 y="0px" viewBox="0 0 709 283" style="enable-background:new 0 0 709 283;" xml:space="preserve">
<style type="text/css">
	.st0{fill:#FA6432;}
</style>
<path id="ThomasMore-logo_00000104672120255221124540000001652999623688073392_" class="st0" d="M197.6,94.4v184.2
	c0,1-0.8,1.9-1.9,1.9h-33.8c-1,0-1.9-0.8-1.9-1.9V151.4l-50.7,97.8H88.1l-50.5-97.8v127.2c0,1-0.8,1.9-1.9,1.9H1.9
	c-1,0-1.9-0.8-1.9-1.9V94.4c0-1,0.8-1.9,1.9-1.9h43.2c1.1,0,2,0.6,2.5,1.5L99,193.8l51.6-99.8c0.5-0.9,1.5-1.5,2.5-1.5h42.7
	C196.8,92.5,197.6,93.4,197.6,94.4z M624.9,127.9L624.9,127.9l82.2,0c1,0,1.9-0.8,1.9-1.9V94.4c0-1-0.8-1.9-1.9-1.9h-82.2
	c-25.6,0-46.4,20.8-46.4,46.4v0V234c0,25.6,20.8,46.4,46.4,46.4h82.2c1,0,1.9-0.8,1.9-1.9v-31.6c0-1-0.8-1.9-1.9-1.9h-82.2
	c-4.9,0-8.9-4-8.9-8.9v-32.5h82.2c1,0,1.9-0.8,1.9-1.9v-31.6c0-1-0.8-1.9-1.9-1.9H616v-31.5C616,131.9,620,127.9,624.9,127.9z
	 M51.9,14.5V1.9c0-0.4-0.3-0.7-0.7-0.7H0.7C0.3,1.2,0,1.5,0,1.9v12.7c0,0.4,0.3,0.7,0.7,0.7h17.8v51.7c0,0.4,0.3,0.7,0.7,0.7h13.5
	c0.4,0,0.7-0.3,0.7-0.7V15.2h17.8C51.6,15.2,51.9,14.9,51.9,14.5z M114.6,1.2h-13.5c-0.4,0-0.7,0.3-0.7,0.7v25.3H73.7V1.9
	c0-0.4-0.3-0.7-0.7-0.7H59.5c-0.4,0-0.7,0.3-0.7,0.7v65.1c0,0.4,0.3,0.7,0.7,0.7H73c0.4,0,0.7-0.3,0.7-0.7V41.2h26.7v25.7
	c0,0.4,0.3,0.7,0.7,0.7h13.5c0.4,0,0.7-0.3,0.7-0.7V1.9C115.3,1.5,115,1.2,114.6,1.2z M158,68.8c19.9,0,35.2-14.8,35.2-34.4
	S177.9,0,158,0c-20,0-35.2,14.8-35.2,34.4S137.9,68.8,158,68.8z M158,54.4c-11.3,0-19.8-8.6-19.8-20c0-11.5,8.6-20,19.8-20
	c11.3,0,19.8,8.6,19.8,20C177.8,45.8,169.2,54.4,158,54.4z M271.7,1.2H255c-0.5,0-1,0.3-1.2,0.7L236.5,34L219.4,1.9
	c-0.2-0.5-0.7-0.7-1.2-0.7h-16.9c-0.4,0-0.7,0.3-0.7,0.7v65.1c0,0.4,0.3,0.7,0.7,0.7h13.5c0.4,0,0.7-0.3,0.7-0.7v-42l16.8,31.5h8.5
	l16.8-31.5v42c0,0.4,0.3,0.7,0.7,0.7h13.5c0.4,0,0.7-0.3,0.7-0.7V1.9C272.4,1.5,272.1,1.2,271.7,1.2z M328.5,66.7
	c0.2,0.6,0.7,0.9,1.3,0.9h14.4c0.5,0,0.8-0.5,0.7-1L320.5,2.1c-0.2-0.5-0.7-0.9-1.3-0.9h-15.7c-0.6,0-1.1,0.4-1.3,0.9l-24.2,64.6
	c-0.2,0.5,0.2,1,0.7,1h14c0.6,0,1.1-0.4,1.3-0.9l3.8-10.7h27L328.5,66.7z M302.5,42.2l8.7-24.6l8.7,24.6H302.5z M344.8,58.8
	c7,6,17.7,10,27.8,10c14.8,0,26.3-8.3,26.3-20.5c0-15.5-18.6-20.1-24.5-21.4c-6.1-1.3-12.1-3.3-12.1-7.6c0-3.5,4.2-6,10.2-6
	c5.9,0,12.1,2.3,16,5.7c0.3,0.3,0.8,0.2,1.1-0.2l6.2-10.2c0.2-0.3,0.1-0.7-0.1-0.9c-5-4.5-13.2-7.8-23.1-7.8
	c-15.3,0-25.6,7.9-25.6,19.8c0,11.8,9.9,18,23.2,21.2c7,1.7,13.4,3.3,13.4,7.9c0,3.9-5.1,6.6-11.1,6.6c-6.8,0-14.5-3.2-19.8-7.9
	c-0.3-0.3-0.8-0.2-1,0.1l-6.9,10.2C344.4,58.1,344.5,58.6,344.8,58.8z M567.5,280.5h-36c-1,0-1.9-0.5-2.4-1.3L492,219.4l-36.8-0.2
	v0.2v59.2c0,1-0.8,1.9-1.9,1.9h-33.8c-1,0-1.9-0.8-1.9-1.9V94.4c0-1,0.8-1.9,1.9-1.9h81.8c34.9,0,64.2,27.6,64.6,62.5
	c0.3,25.9-14.8,48.2-36.8,58.4l39.9,64.2C569.9,278.8,569,280.5,567.5,280.5z M530.5,155.9c0-15.4-12.5-27.9-27.9-27.9h-47.4v0.3
	v55.5v0h47.4C518,183.8,530.5,171.3,530.5,155.9z M248.1,199.8c-1-4.3-1.5-8.7-1.5-13.3c0-33.7,27.3-61,61-61s61,27.3,61,61
	c0,4.6-0.5,9-1.5,13.3h36c0.6-4.3,0.9-8.8,0.9-13.3c0-53.3-43.2-96.4-96.4-96.4c-53.3,0-96.4,43.2-96.4,96.4c0,4.5,0.3,8.9,0.9,13.3
	H248.1z M219.8,226.4c15.2,33.4,48.8,56.6,87.8,56.6c39,0,72.7-23.2,87.8-56.6H219.8z"/>
</svg>
