<svg xmlns="http://www.w3.org/2000/svg" viewBox="0 0 419.3 113.79"><defs><style>.cls-1{fill:#33afe5;}.cls-2{fill:#ce1327;}</style></defs><g id="Layer_2" data-name="Layer 2"><g id="Layer_1-2" data-name="Layer 1"><polygon class="cls-1" points="211.39 58.77 203.44 76.95 209.04 76.95 213.75 65.59 218.18 76.95 223.75 76.95 216.43 58.77 211.39 58.77"/><polygon class="cls-1" points="234.68 55.13 229.85 55.16 229.76 76.95 243.82 76.95 243.85 72.47 234.65 72.5 234.68 55.13"/><path class="cls-1" d="M250.25,71.76c0,.08,0,.27,0,.55a5.26,5.26,0,0,0,.23,1,5.37,5.37,0,0,0,.55,1.22,4.42,4.42,0,0,0,1,1.17,5.85,5.85,0,0,0,1.63.89,6.79,6.79,0,0,0,2.36.35h7.77v-4.3c-.61,0-1.25,0-1.9,0h-4.17a2.32,2.32,0,0,1-1.67-.52,2.81,2.81,0,0,1-.74-1.17,4.23,4.23,0,0,1-.15-1.69h7.2V65.33h-7.2V62.57h8.63l0-3.89H250.25Z"/><polygon class="cls-1" points="282.49 58.63 279.25 63.34 276.03 58.63 269.24 58.65 276.21 67.79 269.24 76.95 276.03 76.95 279.25 72.53 282.49 76.95 289.25 76.95 282.85 67.79 289.25 58.65 282.49 58.63"/><polygon class="cls-1" points="302.02 58.77 294.07 76.95 299.67 76.95 304.38 65.59 308.81 76.95 314.38 76.95 307.06 58.77 302.02 58.77"/><polygon class="cls-1" points="332.15 67.67 325.33 58.65 320.69 58.65 320.69 76.92 325.63 76.92 325.63 67.05 332.75 76.92 337.13 76.92 337.13 58.65 332.15 58.65 332.15 67.67"/><path class="cls-1" d="M354.87,54.35l0,4.33h-5a6.88,6.88,0,0,0-1.85.23,5.09,5.09,0,0,0-1.4.59,5,5,0,0,0-1,.83,4.17,4.17,0,0,0-.7,1,6.55,6.55,0,0,0-.81,2.6v8.63a4.06,4.06,0,0,0,.24,1.46,3.51,3.51,0,0,0,.64,1.08,4.27,4.27,0,0,0,.91.79,6.37,6.37,0,0,0,1,.53,8,8,0,0,0,2.8.56h10.21l-.06-22.6Zm-.06,18.21h-3.33a2.72,2.72,0,0,1-1.54-.35,2.08,2.08,0,0,1-.74-.88,2.64,2.64,0,0,1-.22-1.08V66.43c0-.22,0-.52,0-.89a3.38,3.38,0,0,1,.22-1.12,2.26,2.26,0,0,1,.75-1,2.47,2.47,0,0,1,1.55-.42h3.3Z"/><path class="cls-1" d="M370.31,59a5.42,5.42,0,0,0-1.62.89,4.47,4.47,0,0,0-1,1.17,5.85,5.85,0,0,0-.55,1.22,5.26,5.26,0,0,0-.23,1c0,.28,0,.47,0,.54V77h5V66.37q0-.09,0-.63A3.19,3.19,0,0,1,372,64.6a2.56,2.56,0,0,1,.73-1.1,2.47,2.47,0,0,1,1.69-.49h6.08V58.68h-7.77A6.79,6.79,0,0,0,370.31,59Z"/><rect class="cls-1" x="387" y="58.68" width="4.94" height="18.27"/><polygon class="cls-1" points="411.23 58.77 406.2 58.77 398.25 76.95 403.85 76.95 408.55 65.59 412.99 76.95 418.56 76.95 411.23 58.77"/><path d="M211.35,107.92a9.4,9.4,0,0,1-3.21-.48,7.59,7.59,0,0,1-2.19-1.2,5.77,5.77,0,0,1-1.4-1.59,8.1,8.1,0,0,1-.74-1.65,7.22,7.22,0,0,1-.3-1.36,7.33,7.33,0,0,1-.07-.75V83.18h18.47l0,5.26H210.18v3.74h9.76v5.3h-9.76a5.92,5.92,0,0,0,.2,2.29,3.88,3.88,0,0,0,1,1.59,3.18,3.18,0,0,0,2.26.7h5.64c.89,0,1.75,0,2.58,0v5.82Z"/><path d="M244.21,92.06v21h-5.72V108h-6a9.56,9.56,0,0,1-3.23-.48,7.78,7.78,0,0,1-2.22-1.2,5.89,5.89,0,0,1-1.39-1.59,8.7,8.7,0,0,1-.76-1.67,6.37,6.37,0,0,1-.32-1.4c0-.4-.06-.66-.06-.77l0-10.6c0-.11,0-.36.06-.76a6.57,6.57,0,0,1,.32-1.41,9.52,9.52,0,0,1,.74-1.67A5.75,5.75,0,0,1,227,84.83a7.91,7.91,0,0,1,2.22-1.21,9.56,9.56,0,0,1,3.23-.48H244V89H234.7a3.62,3.62,0,0,0-2.1.51,2.62,2.62,0,0,0-1,1.22,4.34,4.34,0,0,0-.3,1.53c0,.54,0,1,0,1.41v.88c0,.37,0,.75,0,1.14s0,.75,0,1.07v.64c0,.29,0,.7,0,1.22a4.43,4.43,0,0,0,.32,1.55,3.19,3.19,0,0,0,1,1.33,3.48,3.48,0,0,0,2.14.56h3.67V97.4h-1.25l.12-5.34Z"/><path d="M254.17,98.2a3.42,3.42,0,0,0,.73,2.45,3.74,3.74,0,0,0,2.74.77h3.63l0-18.2h7l-.12,30.53-6.89,0,0-5.83h-5.81a9.47,9.47,0,0,1-2.5-.3,7.34,7.34,0,0,1-1.9-.8,6.87,6.87,0,0,1-1.39-1.15,6.64,6.64,0,0,1-.94-1.28,8.7,8.7,0,0,1-1.09-3.54V83.22h6.69V92.5c0,.86,0,1.66,0,2.41s0,1.42,0,2Z"/><path d="M286.07,83.18a11.14,11.14,0,0,1,3.83.77,7.87,7.87,0,0,1,1.39.7,5.45,5.45,0,0,1,1.21,1.06,5.1,5.1,0,0,1,.86,1.49,5.38,5.38,0,0,1,.33,2v11.68a9.07,9.07,0,0,1-1.09,3.54,7,7,0,0,1-.93,1.28,6.13,6.13,0,0,1-1.39,1.15,7.73,7.73,0,0,1-1.91.8,9.54,9.54,0,0,1-2.51.3h-6.73l0,5.87-6.73-.08-.13-30.53Zm1,10.49V92.3a3.8,3.8,0,0,0-.3-1.51,2.73,2.73,0,0,0-1-1.18,3.65,3.65,0,0,0-2.09-.48h-4.52V102h4.48a3.36,3.36,0,0,0,2.11-.56,3.09,3.09,0,0,0,1-1.31,4.43,4.43,0,0,0,.3-1.53c0-.52,0-.91,0-1.18Z"/><path d="M318.2,90.12h-7.58v17.76h-6.73V90.12h-7.74V83.05H318.2Z"/><path class="cls-2" d="M413.31,82.31l0,13.08h-5.84a3.78,3.78,0,0,1-1.24-.18,1.91,1.91,0,0,1-1-.88,4.29,4.29,0,0,1-.42-1.42c0-.39-.09-.87-.11-1.44l0-9.16h-6v11.9a11.51,11.51,0,0,0,.19,1.43,6.72,6.72,0,0,0,1,2.39,7.07,7.07,0,0,0,2.38,2.28,8.48,8.48,0,0,0,4.52,1h6.47v7.08h6V82.31Z"/><path class="cls-2" d="M395.53,87.26a8,8,0,0,0-.76-1.68A5.72,5.72,0,0,0,393.39,84a7.63,7.63,0,0,0-2.23-1.22,9.88,9.88,0,0,0-3.31-.49h-11v5h8.42a4.75,4.75,0,0,1,3,.82,4.31,4.31,0,0,1,1.35,1.76,5.06,5.06,0,0,1,.23,2.54l-.1.65h-5a8.46,8.46,0,0,0-4.52,1,7.07,7.07,0,0,0-2.38,2.28,6.33,6.33,0,0,0-.94,2.38,13.14,13.14,0,0,0-.17,1.47v8.16h19v-5h-.73l-3.87,0h-8.45v-.75c0-.91,0-1.66.05-2.23a3.1,3.1,0,0,1,.56-1.74,2.55,2.55,0,0,1,1.6-.91,12.62,12.62,0,0,1,2.42-.17h8.51V89.39c0-.12,0-.37-.07-.74A7.29,7.29,0,0,0,395.53,87.26Z"/><path class="cls-2" d="M350.77,87.26a8.41,8.41,0,0,0-.77-1.68A5.85,5.85,0,0,0,348.63,84a7.63,7.63,0,0,0-2.23-1.22,9.92,9.92,0,0,0-3.31-.49h-11v5h8.41a4.76,4.76,0,0,1,3.05.82,4.39,4.39,0,0,1,1.35,1.76,5.07,5.07,0,0,1,.22,2.54l-.09.65h-5a8.45,8.45,0,0,0-4.51,1,7.11,7.11,0,0,0-2.39,2.28,6.5,6.5,0,0,0-.94,2.38c-.12.84-.16,1.23-.17,1.47v8.16h19v-5h-.73l-3.86,0H338v-.75c0-.91,0-1.66,0-2.23a3.1,3.1,0,0,1,.56-1.74,2.58,2.58,0,0,1,1.6-.91,12.74,12.74,0,0,1,2.43-.17h8.5V89.39c0-.12,0-.37-.06-.74A7.29,7.29,0,0,0,350.77,87.26Z"/><path class="cls-2" d="M374.09,87.26h0a7.86,7.86,0,0,0-.76-1.68A6.19,6.19,0,0,0,372,84a7.38,7.38,0,0,0-2.2-1.21,9.67,9.67,0,0,0-3.31-.49h-4.14a9.59,9.59,0,0,0-3.31.49A7.35,7.35,0,0,0,356.79,84a6.19,6.19,0,0,0-1.36,1.57,8.71,8.71,0,0,0-.76,1.68,7,7,0,0,0-.31,1.39q-.06.55-.06.75v12.15c0,.11,0,.36.06.74a7.38,7.38,0,0,0,.31,1.38,8.45,8.45,0,0,0,.76,1.68,6,6,0,0,0,1.37,1.57,7.23,7.23,0,0,0,2.19,1.21,9.73,9.73,0,0,0,3.32.49h4.14a9.71,9.71,0,0,0,3.31-.49,7.73,7.73,0,0,0,2.21-1.21,6.14,6.14,0,0,0,1.35-1.57,8.46,8.46,0,0,0,.77-1.68,8.12,8.12,0,0,0,.3-1.38c0-.38.06-.62.07-.76V89.38c0-.12,0-.36-.07-.74A7.74,7.74,0,0,0,374.09,87.26Zm-14.57,8.36c0-.44,0-.87,0-1.3v-1c0-.45,0-1,0-1.57a5.22,5.22,0,0,1,.42-1.93,3.89,3.89,0,0,1,1.4-1.65,4.79,4.79,0,0,1,2.74-.67h.45a5,5,0,0,1,2.89.67,3.85,3.85,0,0,1,1.39,1.65,5.31,5.31,0,0,1,.42,1.93c0,.59,0,1.12,0,1.57v1c0,.43,0,.86,0,1.31s0,.81,0,1.16v.76c0,.3,0,.75,0,1.34a5.56,5.56,0,0,1-.42,2,4.42,4.42,0,0,1-1.35,1.77,4.55,4.55,0,0,1-2.84.79h-.41a4.5,4.5,0,0,1-2.8-.78,4.27,4.27,0,0,1-1.38-1.78,5.56,5.56,0,0,1-.42-2c0-.59,0-1,0-1.34v-.76Q359.55,96.26,359.52,95.62Z"/><path d="M210.05,50.55a6,6,0,0,1-2.34-.45,5.73,5.73,0,0,1-1.88-1.27,5.56,5.56,0,0,1-1.25-1.9,6.47,6.47,0,0,1,0-4.69,5.74,5.74,0,0,1,1.24-1.89,5.63,5.63,0,0,1,1.88-1.27,6.11,6.11,0,0,1,2.35-.45,5.94,5.94,0,0,1,2.33.45,5.63,5.63,0,0,1,1.88,1.27,5.8,5.8,0,0,1,1.26,1.89,6.47,6.47,0,0,1,0,4.69,5.74,5.74,0,0,1-1.26,1.9,5.63,5.63,0,0,1-1.88,1.27A5.94,5.94,0,0,1,210.05,50.55Zm0-2.41a3,3,0,0,0,1.73-.5,3.1,3.1,0,0,0,1.1-1.3,4.1,4.1,0,0,0,.39-1.78,4,4,0,0,0-.39-1.78,3.2,3.2,0,0,0-1.1-1.29,3.36,3.36,0,0,0-3.46,0,3.33,3.33,0,0,0-1.12,1.29,4,4,0,0,0-.39,1.78,4.1,4.1,0,0,0,.39,1.78,3.22,3.22,0,0,0,1.12,1.3A3,3,0,0,0,210.05,48.14Z"/><path d="M217.73,50.26V38.94h2.57v9h5.44v2.28Z"/><path d="M227.78,50.26V45.52l-4-6.58h2.91l2.47,4.28,2.4-4.28h2.79l-4,6.57v4.75Z"/><path d="M235.14,50.26l.53-11.32h2.44l3,5.31,2.9-5.31h2.45L247,50.26h-2.58l-.32-7.4L241.7,48.7h-1.33l-2.49-5.79-.29,7.35Z"/><path d="M249,50.26V38.94h4.14a4.45,4.45,0,0,1,2.3.52,3.13,3.13,0,0,1,1.28,1.35,4,4,0,0,1,.41,1.78,3.58,3.58,0,0,1-.54,2,3.42,3.42,0,0,1-1.43,1.24,4.33,4.33,0,0,1-1.9.42h-1.75v4Zm2.51-6.06H253a1.5,1.5,0,0,0,1.12-.44,1.54,1.54,0,0,0,.43-1.12,1.59,1.59,0,0,0-.43-1.16A1.48,1.48,0,0,0,253,41h-1.48Z"/><path d="M258.82,50.26V38.94h2.57V50.26Z"/><path d="M262.62,50.26l4.24-11.32h2.85l4.15,11.32h-2.81l-.87-2.6h-4l-.87,2.6Zm4.16-4.58h2.79l-1.38-4.28Z"/><path d="M275.09,50.26V38.94h4.29a7.77,7.77,0,0,1,3.13.6,4.71,4.71,0,0,1,2.15,1.87,6,6,0,0,1,.79,3.25,5.77,5.77,0,0,1-.79,3.11,4.88,4.88,0,0,1-2.17,1.87,7.52,7.52,0,0,1-3.12.62ZM277.66,48h1.57a3.58,3.58,0,0,0,2.62-.9,3.23,3.23,0,0,0,.92-2.44,3.58,3.58,0,0,0-.85-2.5,3.45,3.45,0,0,0-2.69-.94h-1.57Z"/><path d="M290.3,50.26V38.94h2.57V50.26Z"/><path d="M295.09,50.26V38.94h2.45l4.93,7.35V38.94H305V50.26h-2.34l-5-7.49v7.49Z"/><path d="M310.3,50.26V38.94h2.57V50.26Z"/><path d="M315.09,50.26V38.94h2.45l4.93,7.35V38.94H325V50.26h-2.33l-5-7.49v7.49Z"/><path d="M327.22,50.26V38.94h7.63V41.2h-5.06v2.56h3.85V46h-3.85v4.31Z"/><path d="M341.27,50.55a6,6,0,0,1-2.33-.45,5.63,5.63,0,0,1-1.88-1.27,5.74,5.74,0,0,1-1.26-1.9,6.47,6.47,0,0,1,0-4.69,5.77,5.77,0,0,1,1.25-1.89,5.53,5.53,0,0,1,1.88-1.27,6.31,6.31,0,0,1,4.68,0,5.73,5.73,0,0,1,1.88,1.27,5.62,5.62,0,0,1,1.25,1.89,6.47,6.47,0,0,1,0,4.69,5.56,5.56,0,0,1-1.25,1.9,5.73,5.73,0,0,1-1.88,1.27A6,6,0,0,1,341.27,50.55Zm0-2.41a3,3,0,0,0,1.73-.5,3.12,3.12,0,0,0,1.11-1.3,4.09,4.09,0,0,0,.38-1.78,4,4,0,0,0-.38-1.78A3.22,3.22,0,0,0,343,41.49a3.36,3.36,0,0,0-3.46,0,3.3,3.3,0,0,0-1.11,1.29,4,4,0,0,0-.39,1.78,4.1,4.1,0,0,0,.39,1.78,3.2,3.2,0,0,0,1.11,1.3A3,3,0,0,0,341.27,48.14Z"/><path d="M349,50.26V38.94h4.22a4.62,4.62,0,0,1,2.22.48,3.16,3.16,0,0,1,1.32,1.29,3.59,3.59,0,0,1,.45,1.78,3.65,3.65,0,0,1-.49,1.91,3.51,3.51,0,0,1-1.37,1.33l2.52,4.53H355l-2.11-4.16h-1.43v4.16Zm2.5-6.21h1.59a1.46,1.46,0,0,0,1.12-.43,1.49,1.49,0,0,0,.41-1.07,1.46,1.46,0,0,0-.42-1.1,1.53,1.53,0,0,0-1.11-.41h-1.59Z"/><path d="M359.11,50.26l.53-11.32h2.43l3,5.31,2.89-5.31h2.46l.53,11.32h-2.58l-.32-7.4-2.35,5.84h-1.33l-2.49-5.79-.29,7.35Z"/><path d="M372,50.26l4.25-11.32H379l4.16,11.32h-2.81l-.87-2.6h-4l-.87,2.6Zm4.16-4.58h2.8l-1.38-4.28Z"/><path d="M385.52,50.26V41.2h-3.68V38.94h9.93V41.2h-3.66v9.06Z"/><path d="M393.23,50.26V38.94h2.58V50.26Z"/><path d="M406.52,46.57l1.76,1.6a5.76,5.76,0,0,1-1.22,1.19,6.37,6.37,0,0,1-1.66.86,5.88,5.88,0,0,1-2,.33,6,6,0,0,1-3-.77,5.44,5.44,0,0,1-2.06-2.09,6.12,6.12,0,0,1-.74-3,6.49,6.49,0,0,1,.42-2.35,6,6,0,0,1,1.2-1.91,5.49,5.49,0,0,1,1.86-1.27,6,6,0,0,1,2.39-.46,6.16,6.16,0,0,1,2.76.58,5.14,5.14,0,0,1,2,1.66l-1.75,1.68a4.39,4.39,0,0,0-1.21-1.15,3.22,3.22,0,0,0-1.67-.43,3.14,3.14,0,0,0-1.77.49,3.24,3.24,0,0,0-1.14,1.29,4.16,4.16,0,0,0-.4,1.8,4,4,0,0,0,.4,1.8,3.3,3.3,0,0,0,1.13,1.27,3.17,3.17,0,0,0,1.73.46,3.62,3.62,0,0,0,1.36-.22,3.1,3.1,0,0,0,.93-.57A8.42,8.42,0,0,0,406.52,46.57Z"/><path d="M408.82,48.66l1.65-1.78a5.47,5.47,0,0,0,1.19.93,3.17,3.17,0,0,0,1.73.46,2.22,2.22,0,0,0,.76-.14,1.54,1.54,0,0,0,.62-.43A1,1,0,0,0,415,47a1.08,1.08,0,0,0-.61-1,7.91,7.91,0,0,0-1.94-.68,4.56,4.56,0,0,1-2.15-1.14,2.76,2.76,0,0,1-.85-2.1,3.38,3.38,0,0,1,.46-1.74,3.22,3.22,0,0,1,1.38-1.27,4.84,4.84,0,0,1,2.32-.49,5.55,5.55,0,0,1,1.95.3,5.43,5.43,0,0,1,1.26.65,4.52,4.52,0,0,1,.67.58L416,41.79a10.06,10.06,0,0,0-1-.65,2.72,2.72,0,0,0-1.45-.37,1.78,1.78,0,0,0-1,.32.87.87,0,0,0-.47.75,1,1,0,0,0,.61.93,6,6,0,0,0,1.69.6A7,7,0,0,1,416,44a3.39,3.39,0,0,1,1.27,1.14,3.31,3.31,0,0,1,.49,1.9,3,3,0,0,1-.58,1.81,4,4,0,0,1-1.56,1.26,5.31,5.31,0,0,1-2.22.46,6.38,6.38,0,0,1-2-.28,5.76,5.76,0,0,1-1.52-.7A6.33,6.33,0,0,1,408.82,48.66Z"/><path d="M207.77,31.92V22.27h-3.92v-2.4h10.57v2.4h-3.9v9.65Z"/><path d="M216,31.92v-12h2.73V24.5H224V19.87h2.74V31.92H224V27h-5.24v5Z"/><path d="M229,31.92v-12h8.27v2.39h-5.53V24.6h4.3v2.31h-4.3v2.61h5.93v2.4Z"/><path d="M241.84,30.81,243.25,29a4.52,4.52,0,0,0,1.15.75,3.11,3.11,0,0,0,1.3.26,2.13,2.13,0,0,0,1.39-.45,1.53,1.53,0,0,0,.55-1.26,1.62,1.62,0,0,0-.43-1.12,1.68,1.68,0,0,0-1.35-.49,2.62,2.62,0,0,0-.64.07,2.2,2.2,0,0,0-.46.13l-.67-1.06,2.92-3h-4.26V20.56h7.17v1.86l-2.37,2.67a3.18,3.18,0,0,1,2.06,1.13,3.55,3.55,0,0,1,.69,2.23,3.31,3.31,0,0,1-.62,2.05A3.94,3.94,0,0,1,248,31.78a5.36,5.36,0,0,1-2.19.44,6.27,6.27,0,0,1-2.28-.38A5.23,5.23,0,0,1,241.84,30.81Z"/><path d="M260.36,20.94l-1,2a7.4,7.4,0,0,0-.71-.29,3.06,3.06,0,0,0-1.12-.19,2.38,2.38,0,0,0-1.72.73,3.1,3.1,0,0,0-.87,1.92,5.26,5.26,0,0,1,.95-.46,3.88,3.88,0,0,1,3.89.82,3.76,3.76,0,0,1,1,2.69,4.27,4.27,0,0,1-.48,2,3.66,3.66,0,0,1-1.39,1.48,4.06,4.06,0,0,1-2.21.56,4.43,4.43,0,0,1-2.23-.57,4,4,0,0,1-1.57-1.84,7.79,7.79,0,0,1-.58-3.27,8.49,8.49,0,0,1,.59-3.23,5.13,5.13,0,0,1,1.77-2.26,4.79,4.79,0,0,1,2.87-.83,4.88,4.88,0,0,1,1.68.25A9.75,9.75,0,0,1,260.36,20.94Zm-5.45,6.21a4.85,4.85,0,0,0,.27,1.71,1.8,1.8,0,0,0,.66.87,1.59,1.59,0,0,0,.86.25,1.52,1.52,0,0,0,1.2-.51,2,2,0,0,0,.45-1.33,1.51,1.51,0,0,0-1.59-1.62,2.75,2.75,0,0,0-1.1.19A2.7,2.7,0,0,0,254.91,27.15Z"/><path d="M263.92,25.9V20.28h-2.28v-1.4h6.16v1.4h-2.27V25.9Z"/><path d="M268.71,25.9v-7h1.59v2.7h3.05v-2.7H275v7h-1.6V23H270.3V25.9Z"/><path d="M280.1,31.92v-12h2.73V31.92Z"/><path d="M285.19,31.92v-12h2.61L293,27.69V19.87h2.7V31.92h-2.49l-5.36-8v8Z"/><path d="M301.21,31.92V22.27H297.3v-2.4h10.56v2.4H304v9.65Z"/><path d="M309.42,31.92v-12h8.27v2.39h-5.53V24.6h4.29v2.31h-4.29v2.61h5.92v2.4Z"/><path d="M319.93,31.92v-12h4.5a4.86,4.86,0,0,1,2.35.52,3.48,3.48,0,0,1,1.42,1.37,4.15,4.15,0,0,1-.05,3.93,3.74,3.74,0,0,1-1.46,1.41l2.69,4.82h-3l-2.25-4.43H322.6v4.43Zm2.67-6.61h1.68a1.59,1.59,0,0,0,1.2-.45,1.57,1.57,0,0,0,.43-1.14,1.55,1.55,0,0,0-.44-1.17,1.63,1.63,0,0,0-1.19-.44H322.6Z"/><path d="M330.93,31.92v-12h2.61l5.24,7.82V19.87h2.7V31.92H339l-5.37-8v8Z"/><path d="M342.79,31.92l4.51-12h3l4.42,12.05h-3l-.93-2.77h-4.25l-.93,2.77ZM347.21,27h3l-1.47-4.55Z"/><path d="M357.21,31.92V22.27H353.3v-2.4h10.57v2.4H360v9.65Z"/><path d="M365.42,31.92v-12h2.74V31.92Z"/><path d="M376.34,32.22a6.35,6.35,0,0,1-2.49-.48,5.91,5.91,0,0,1-2-1.34,6.12,6.12,0,0,1-1.33-2,6.86,6.86,0,0,1,0-5A6,6,0,0,1,373.84,20a6.44,6.44,0,0,1,2.5-.48,6.34,6.34,0,0,1,2.48.48,6.06,6.06,0,0,1,2,1.34,6,6,0,0,1,1.33,2,6.72,6.72,0,0,1,0,5,6.1,6.1,0,0,1-3.33,3.36A6.34,6.34,0,0,1,376.34,32.22Zm0-2.56a3.21,3.21,0,0,0,1.84-.52,3.44,3.44,0,0,0,1.17-1.39,4.3,4.3,0,0,0,.41-1.9,4.22,4.22,0,0,0-.41-1.89,3.32,3.32,0,0,0-1.17-1.37,3.28,3.28,0,0,0-1.84-.51,3.23,3.23,0,0,0-1.84.51A3.37,3.37,0,0,0,373.31,24a4.23,4.23,0,0,0-.42,1.89,4.3,4.3,0,0,0,.42,1.9,3.49,3.49,0,0,0,1.19,1.39A3.16,3.16,0,0,0,376.34,29.66Z"/><path d="M384.51,31.92v-12h2.61l5.24,7.82V19.87h2.7V31.92h-2.48l-5.37-8v8Z"/><path d="M396.36,31.92l4.52-12h3l4.42,12.05h-3l-.92-2.77h-4.26l-.92,2.77ZM400.78,27h3l-1.47-4.55Z"/><path d="M409.63,31.92v-12h2.74V29.5h5.78v2.42Z"/><polygon points="188.75 113.79 171.38 113.79 163.95 0 173.37 0 188.75 113.79"/><polygon points="0 113.79 17.36 113.79 24.8 0 15.38 0 0 113.79"/><path class="cls-2" d="M96.34,113.79h2V101.92c-.66.06-1.33.1-2,.13Z"/><path class="cls-2" d="M86.46,113.79V101.41q-1-.18-2-.39v12.77Z"/><path class="cls-2" d="M104.3,113.79V101q-1,.21-2,.39v12.38Z"/><path class="cls-2" d="M90.39,113.79h2V102.05c-.67,0-1.34-.07-2-.13Z"/><path class="cls-2" d="M150.24,55.87a55.87,55.87,0,1,0-83.91,48.29l-27.82,1.38v8.25h42V100a46.24,46.24,0,1,1,27.73,0v13.82h42v-8.25l-27.83-1.38A55.87,55.87,0,0,0,150.24,55.87Z"/></g></g></svg>