<?xml version="1.0" encoding="UTF-8"?><svg xmlns:dc="http://purl.org/dc/elements/1.1/" xmlns:cc="http://creativecommons.org/ns#" xmlns:rdf="http://www.w3.org/1999/02/22-rdf-syntax-ns#" xmlns:svg="http://www.w3.org/2000/svg" xmlns="http://www.w3.org/2000/svg" xmlns:sodipodi="http://sodipodi.sourceforge.net/DTD/sodipodi-0.dtd" xmlns:inkscape="http://www.inkscape.org/namespaces/inkscape" width="348.12625" height="301.26486" version="1.2" baseProfile="tiny-ps"><title>/Users/dle/Downloads/logo_be-oi-white-faded-tinyportable.svg</title><defs id="defs16536"><clipPath clipPathUnits="userSpaceOnUse" id="clipPath4884"><path d="M 0,824 H 2824.875 V 0 H 0 Z" id="path4886"></path></clipPath><clipPath clipPathUnits="userSpaceOnUse" id="clipPath4122"><path d="M 0,824 H 2824.875 V 0 H 0 Z" id="path4124"></path></clipPath><clipPath clipPathUnits="userSpaceOnUse" id="clipPath4138"><path d="m 1981.9,577.387 h 55.05 v -10.051 h -55.05 z" id="path4140"></path></clipPath></defs><metadata></metadata><g id="layer1" transform="translate(-5.077475,-581.61335)"><g transform="matrix(1.25,0,0,-1.25,-2183.0239,1584.8425)" id="g4118"><g id="g4120"><g id="g4126" transform="translate(2028.9821,700.82143)"><path d="m 0,0 c 0,27.259 -7.878,53.662 -22.781,76.353 -2.728,4.153 -8.308,5.311 -12.463,2.581 -4.155,-2.728 -5.311,-8.309 -2.582,-12.463 9.802,-14.923 16.105,-31.697 18.603,-49.245 -3.721,13.907 -9.856,27.106 -18.271,39.092 -14.381,20.483 -34.299,35.994 -57.601,44.854 -4.643,1.766 -9.844,-0.567 -11.611,-5.213 -1.767,-4.646 0.567,-9.844 5.213,-11.611 28.333,-10.774 50.227,-33.196 61.044,-60.502 -11.408,21.828 -29.934,39.765 -53.289,50.219 -4.534,2.03 -9.861,0 -11.892,-4.537 -2.03,-4.536 10e-4,-9.861 4.538,-11.891 33.619,-15.05 55.342,-48.566 55.342,-85.387 0,-50.75 -40.643,-92.187 -91.09,-93.47 -0.802,-0.017 -1.605,-0.03 -2.411,-0.03 -0.806,0 -1.609,0.013 -2.411,0.03 -50.445,1.283 -91.089,42.72 -91.089,93.47 0,35.44 19.652,67.417 51.288,83.454 4.434,2.247 6.206,7.663 3.958,12.097 -2.247,4.435 -7.668,6.206 -12.097,3.958 -21.044,-10.668 -37.635,-27.258 -48.196,-47.177 10.006,24.833 29.213,45.564 54.375,57.082 4.52,2.069 6.506,7.41 4.438,11.929 -2.071,4.52 -7.412,6.508 -11.93,4.437 -34.199,-15.655 -59.002,-45.861 -68.416,-81.245 2.563,18.538 9.354,36.183 20.047,51.756 2.813,4.098 1.771,9.7 -2.326,12.514 -4.097,2.812 -9.7,1.773 -12.514,-2.326 C -270.071,55.501 -278.501,28.277 -278.501,0 c 0,-75.712 60.738,-137.5 136.047,-139.209 1.064,-0.027 2.132,-0.041 3.203,-0.041 1.071,0 2.139,0.014 3.203,0.041 C -60.738,-137.5 0,-75.712 0,0" id="path4128" fill="#416e86" fill-opacity="1" fill-rule="nonzero" stroke="none"></path></g><g id="g4130" transform="translate(1931.8092,603.90733)"><path d="m 0,0 h -80.403 v 5.025 c 0,0 2.257,5.026 5.025,5.026 H -5.026 C -2.257,10.051 0,7.793 0,5.025 Z" id="path4132" fill="#437e9e" fill-opacity="1" fill-rule="nonzero" stroke="none"></path></g><g id="g4134" transform="translate(-105.14286,36.571429)"><g id="g4136"></g><g id="g4142"><g id="g4144"><g transform="translate(2036.9521,567.3359)" id="g4146"><path d="m 0,0 v 5.025 c 0,2.768 -2.257,5.026 -5.026,5.026 H -51.347 L -55.056,0 Z" id="path4148" fill="#292929" fill-opacity="1" fill-rule="nonzero" stroke="none"></path></g></g></g></g><g id="g4150" transform="translate(1941.8551,633.87223)"><path d="m 0,0 c -2.871,0 -5.203,2.331 -5.203,5.212 0,2.876 2.332,5.212 5.203,5.212 2.879,0 5.21,-2.336 5.21,-5.212 C 5.21,2.331 2.879,0 0,0 m -105.523,20.286 v 60.303 c 0,2.767 2.257,5.025 5.025,5.025 H 0.004 c 2.768,0 5.024,-2.258 5.024,-5.025 V 20.286 c 0,-2.766 -2.256,-5.025 -5.024,-5.025 h -100.502 c -2.768,0 -5.025,2.259 -5.025,5.025 M 0.004,95.664 h -100.502 c -8.324,0 -15.076,-6.752 -15.076,-15.075 V 10.237 c 0,-8.323 6.752,-15.076 15.076,-15.076 h 35.175 v -5.025 c 0,-2.768 2.259,-5.026 5.025,-5.026 h 20.102 c 2.766,0 5.024,2.592 5.024,5.026 v 5.025 H 0.004 c 8.323,0 15.075,6.753 15.075,15.076 v 70.352 c 0,8.323 -6.752,15.075 -15.075,15.075" id="path4152" fill="#437e9e" fill-opacity="1" fill-rule="nonzero" stroke="none"></path></g><g id="g4154" transform="translate(1941.8551,644.29603)"><path d="m 0,0 c 2.879,0 5.21,-2.336 5.21,-5.212 0,-2.881 -2.331,-5.212 -5.21,-5.212 -2.871,0 -5.203,2.331 -5.203,5.212 C -5.203,-2.336 -2.871,0 0,0 m -35.172,-20.288 v 5.025 H 0.004 c 8.323,0 15.075,6.753 15.075,15.076 v 70.352 c 0,8.323 -6.752,15.075 -15.075,15.075 h -18.732 l -3.71,-10.05 H 0.004 c 2.768,0 5.024,-2.257 5.024,-5.025 V 9.862 C 5.028,7.096 2.772,4.837 0.004,4.837 h -48.412 l -11.129,-30.15 h 19.341 c 2.766,0 5.024,2.591 5.024,5.025" id="path4156" fill="#406e86" fill-opacity="1" fill-rule="nonzero" stroke="none"></path></g><g id="g4158" transform="translate(1854.8532,697.79703)"><path d="m 0,0 v -16.755 c 0,-2.721 0.979,-4.081 2.934,-4.081 0.834,0 1.541,0.283 2.122,0.851 0.581,0.567 0.872,1.255 0.872,2.061 0,0.834 -0.274,1.534 -0.821,2.103 -0.546,0.566 -1.216,0.85 -2.009,0.85 -0.561,0 -1.203,-0.246 -1.928,-0.738 v 8.449 c 0.902,0.082 1.586,0.123 2.051,0.123 2.884,0 5.355,-1.039 7.413,-3.117 2.057,-2.078 3.087,-4.58 3.087,-7.506 0,-2.994 -1.047,-5.516 -3.139,-7.567 -2.092,-2.051 -4.662,-3.076 -7.711,-3.076 -1.531,0 -3.024,0.335 -4.48,1.005 -1.456,0.669 -2.657,1.572 -3.6,2.707 -1.641,1.968 -2.461,4.518 -2.461,7.649 V 0 Z" id="path4160" fill="#406e86" fill-opacity="1" fill-rule="nonzero" stroke="none"></path></g><g id="g4162" transform="translate(1892.0339,678.78623)"><path d="m 0,0 h -11.628 c -0.178,0.588 -0.266,1.128 -0.266,1.62 0,0.684 0.123,1.354 0.37,2.01 h 3.896 c -0.273,1.517 -1.129,2.276 -2.564,2.276 -0.957,0 -1.737,-0.407 -2.338,-1.22 -0.602,-0.814 -0.903,-1.856 -0.903,-3.127 0,-1.327 0.291,-2.4 0.872,-3.22 0.582,-0.82 1.343,-1.231 2.287,-1.231 0.765,0 1.503,0.383 2.214,1.149 l 4.37,-5.25 c -2.038,-1.6 -4.301,-2.4 -6.789,-2.4 -3.036,0 -5.584,1.019 -7.649,3.056 -2.064,2.037 -3.098,4.56 -3.098,7.567 0,2.995 1.043,5.524 3.128,7.588 2.085,2.065 4.646,3.097 7.681,3.097 2.967,0 5.458,-1.009 7.475,-3.024 C -0.926,6.873 0.082,4.389 0.082,1.436 0.082,1.135 0.055,0.656 0,0" id="path4164" fill="#406e86" fill-opacity="1" fill-rule="nonzero" stroke="none"></path></g><g id="g4166" transform="translate(1908.8092,690.25013)"><path d="m 0,0 c -1.709,0 -3.165,-0.629 -4.368,-1.887 -1.203,-1.258 -1.805,-2.775 -1.805,-4.552 0,-1.778 0.605,-3.295 1.816,-4.553 1.209,-1.258 2.662,-1.887 4.357,-1.887 1.723,0 3.182,0.626 4.379,1.876 1.195,1.252 1.794,2.773 1.794,4.564 0,1.791 -0.599,3.311 -1.794,4.563 C 3.182,-0.626 1.723,0 0,0 m 0.246,8.244 c 3.965,0 7.365,-1.442 10.203,-4.327 2.836,-2.885 4.255,-6.337 4.255,-10.356 0,-4.088 -1.429,-7.561 -4.286,-10.418 -2.857,-2.858 -6.33,-4.287 -10.418,-4.287 -4.061,0 -7.526,1.436 -10.397,4.307 -2.872,2.871 -4.307,6.337 -4.307,10.398 0,4.101 1.446,7.574 4.337,10.418 2.892,2.843 6.429,4.265 10.613,4.265" id="path4168" fill="#406e86" fill-opacity="1" fill-rule="nonzero" stroke="none"></path></g><path d="m 1935.7571,669.80343 h -8.326 v 27.993 h 8.326 z" id="path4170" fill="#406e86" fill-opacity="1" fill-rule="nonzero" stroke="none"></path><g id="g4386" transform="translate(1793.4928,625.78383)"><path d="M 0,0 10.846,2.39 12.399,-0.456 4.571,-1.981 6.137,-4.847 3.449,-6.315 Z" id="path4388" fill="#bbd3dc" fill-opacity="1" fill-rule="nonzero" stroke="none"></path></g><g id="g4390" transform="translate(1796.0241,638.81903)"><path d="m 0,0 2.844,1.198 2.675,-6.351 -7.248,0.661 -0.247,0.023 c -0.194,0.02 -0.369,-0.002 -0.522,-0.067 -0.389,-0.164 -0.487,-0.474 -0.295,-0.93 0.075,-0.178 0.206,-0.305 0.394,-0.381 0.187,-0.076 0.37,-0.077 0.547,-0.002 0.202,0.085 0.348,0.248 0.438,0.49 L 1.363,-5.673 C 1.26,-6.339 1.015,-6.919 0.63,-7.415 0.246,-7.91 -0.252,-8.286 -0.861,-8.543 c -0.946,-0.398 -1.896,-0.406 -2.852,-0.023 -0.955,0.383 -1.632,1.048 -2.03,1.993 -0.401,0.951 -0.406,1.899 -0.02,2.845 0.387,0.945 1.059,1.62 2.014,2.022 0.547,0.23 1.107,0.322 1.681,0.275 l 2.759,-0.211 z" id="path4392" fill="#bbd3dc" fill-opacity="1" fill-rule="nonzero" stroke="none"></path></g><g id="g4394" transform="translate(1786.9997,640.89903)"><path d="M 0,0 0.128,2.973 6.31,2.69 C 6.487,2.679 6.638,2.693 6.763,2.731 7.031,2.813 7.232,2.984 7.366,3.242 7.499,3.501 7.523,3.767 7.44,4.041 7.356,4.315 7.187,4.518 6.932,4.649 6.676,4.781 6.409,4.804 6.13,4.719 5.851,4.633 5.644,4.465 5.508,4.214 5.372,3.963 5.347,3.7 5.431,3.426 5.45,3.362 5.49,3.268 5.55,3.144 L 2.248,3.466 C 2.384,4.662 2.678,5.584 3.13,6.231 3.583,6.879 4.25,7.338 5.132,7.608 6.237,7.946 7.284,7.854 8.271,7.331 9.26,6.808 9.921,5.999 10.257,4.903 10.573,3.867 10.471,2.846 9.948,1.839 9.426,0.832 8.656,0.173 7.64,-0.138 7.172,-0.281 6.379,-0.325 5.262,-0.269 Z" id="path4396" fill="#bbd3dc" fill-opacity="1" fill-rule="nonzero" stroke="none"></path></g><g id="g4398" transform="translate(1783.9391,654.24723)"><path d="m 0,0 -0.564,2.867 6.37,1.254 C 6.977,4.352 7.989,4.232 8.846,3.764 9.34,3.495 9.766,3.113 10.123,2.618 10.48,2.123 10.716,1.589 10.828,1.017 11.053,-0.123 10.858,-1.159 10.246,-2.091 9.633,-3.024 8.77,-3.6 7.656,-3.82 6.578,-4.032 5.568,-3.827 4.629,-3.205 3.688,-2.583 3.114,-1.741 2.905,-0.678 2.872,-0.51 2.837,-0.251 2.8,0.097 L 5.958,0.719 C 5.82,0.448 5.774,0.195 5.821,-0.041 5.879,-0.337 6.038,-0.57 6.297,-0.739 6.556,-0.908 6.839,-0.963 7.146,-0.902 7.441,-0.844 7.674,-0.684 7.843,-0.422 8.012,-0.161 8.066,0.123 8.006,0.43 7.86,1.166 7.28,1.433 6.263,1.233 Z" id="path4400" fill="#bbd3dc" fill-opacity="1" fill-rule="nonzero" stroke="none"></path></g><g id="g4402" transform="translate(1782.4196,662.34093)"><path d="M 0,0 0.728,2.884 6.724,1.354 C 6.896,1.308 7.046,1.291 7.176,1.303 7.455,1.329 7.688,1.455 7.87,1.681 8.053,1.907 8.131,2.163 8.104,2.448 8.078,2.733 7.953,2.966 7.729,3.147 7.507,3.328 7.25,3.404 6.959,3.377 6.669,3.351 6.432,3.228 6.248,3.009 6.064,2.791 5.985,2.539 6.012,2.254 6.019,2.186 6.038,2.086 6.071,1.953 L 2.904,2.938 C 3.279,4.082 3.754,4.924 4.328,5.467 4.903,6.01 5.649,6.324 6.567,6.409 7.719,6.516 8.725,6.213 9.586,5.501 10.447,4.789 10.932,3.862 11.037,2.721 11.138,1.642 10.83,0.663 10.114,-0.217 9.398,-1.097 8.511,-1.586 7.453,-1.685 6.966,-1.73 6.181,-1.612 5.098,-1.331 Z" id="path4404" fill="#bbd3dc" fill-opacity="1" fill-rule="nonzero" stroke="none"></path></g><g id="g4406" transform="translate(1782.1344,676.49913)"><path d="M 0,0 10.663,-0.173 10.614,-3.196 -0.049,-3.023 Z" id="path4408" fill="#bbd3dc" fill-opacity="1" fill-rule="nonzero" stroke="none"></path></g><g id="g4410" transform="translate(1783.1071,689.30923)"><path d="M 0,0 10.272,-4.22 9.928,-7.443 2.626,-4.233 2.278,-7.48 -0.767,-7.154 Z" id="path4412" fill="#bbd3dc" fill-opacity="1" fill-rule="nonzero" stroke="none"></path></g><g id="g4414" transform="translate(1785.2341,700.29703)"><path d="m 0,0 10.435,-2.202 -0.62,-2.935 -7.965,1.68 2.31,-1.844 0.135,0.642 2.27,-0.479 -0.859,-4.074 -6.672,4.633 z" id="path4416" fill="#bbd3dc" fill-opacity="1" fill-rule="nonzero" stroke="none"></path></g><g id="g4418" transform="translate(1786.3903,705.44693)"><path d="m 0,0 1.8,2.369 4.918,-3.756 c 0.139,-0.11 0.271,-0.185 0.395,-0.225 0.268,-0.085 0.531,-0.06 0.787,0.077 0.257,0.136 0.429,0.341 0.517,0.614 0.087,0.273 0.063,0.536 -0.071,0.79 C 8.211,0.122 8.004,0.293 7.727,0.382 7.448,0.471 7.183,0.451 6.928,0.322 6.673,0.193 6.502,-0.008 6.415,-0.281 6.395,-0.345 6.373,-0.445 6.352,-0.581 L 3.823,1.565 c 0.793,0.906 1.56,1.496 2.301,1.77 0.741,0.274 1.551,0.271 2.429,-0.01 1.101,-0.352 1.909,-1.025 2.423,-2.018 0.513,-0.993 0.595,-2.035 0.246,-3.126 -0.33,-1.032 -0.997,-1.812 -2,-2.342 C 8.219,-4.69 7.211,-4.792 6.198,-4.469 5.732,-4.32 5.057,-3.904 4.17,-3.221 Z" id="path4420" fill="#bbd3dc" fill-opacity="1" fill-rule="nonzero" stroke="none"></path></g><g id="g4422" transform="translate(1801.7829,714.31313)"><path d="M 0,0 -2.03,-2.174 -6.542,2.06 C -6.672,2.179 -6.799,2.266 -6.923,2.32 -7.181,2.433 -7.444,2.434 -7.714,2.324 -7.983,2.214 -8.176,2.028 -8.29,1.766 -8.404,1.503 -8.407,1.239 -8.299,0.973 -8.19,0.707 -8.003,0.515 -7.735,0.399 -7.464,0.28 -7.194,0.272 -6.928,0.375 c 0.267,0.102 0.458,0.287 0.574,0.555 0.026,0.057 0.055,0.152 0.09,0.284 l 2.302,-2.384 c -0.888,-0.823 -1.713,-1.334 -2.476,-1.533 -0.762,-0.199 -1.569,-0.112 -2.418,0.258 -1.055,0.46 -1.789,1.21 -2.199,2.25 -0.41,1.04 -0.385,2.085 0.073,3.135 0.432,0.993 1.174,1.702 2.226,2.127 1.053,0.425 2.066,0.425 3.039,0 0.453,-0.198 1.084,-0.68 1.892,-1.447 z" id="path4424" fill="#bbd3dc" fill-opacity="1" fill-rule="nonzero" stroke="none"></path></g><g id="g4426" transform="translate(1797.6344,729.97913)"><path d="m 0,0 7.774,-7.931 -1.589,-2.826 -5.442,5.831 -1.601,-2.846 -2.669,1.501 z" id="path4428" fill="#bbd3dc" fill-opacity="1" fill-rule="nonzero" stroke="none"></path></g><g id="g4430" transform="translate(1802.5368,737.26483)"><path d="M 0,0 8.721,-6.138 6.98,-8.61 -1.74,-2.473 Z" id="path4432" fill="#bbd3dc" fill-opacity="1" fill-rule="nonzero" stroke="none"></path></g><g id="g4434" transform="translate(1810.7126,747.30333)"><path d="m 0,0 6.03,-9.327 -2.123,-2.45 -4.165,6.802 -2.138,-2.468 -2.315,2.005 z" id="path4436" fill="#bbd3dc" fill-opacity="1" fill-rule="nonzero" stroke="none"></path></g><g id="g4438" transform="translate(1817.9782,754.41423)"><path d="m 0,0 2.103,-2.227 -1.91,-1.802 0.231,-0.449 c 0.886,0.457 1.675,0.654 2.365,0.589 0.944,-0.082 1.757,-0.483 2.436,-1.203 0.718,-0.761 1.035,-1.657 0.95,-2.685 -0.085,-1.03 -0.552,-1.945 -1.4,-2.745 -0.572,-0.541 -1.278,-0.923 -2.117,-1.15 l -1.802,1.909 c 0.647,0.203 1.139,0.463 1.476,0.781 0.349,0.329 0.55,0.669 0.602,1.019 0.052,0.35 -0.05,0.662 -0.307,0.935 C 2.337,-6.722 1.936,-6.61 1.423,-6.692 0.91,-6.775 0.425,-7.033 -0.033,-7.465 -0.208,-7.63 -0.408,-7.88 -0.635,-8.216 L -3.602,-3.4 Z" id="path4440" fill="#bbd3dc" fill-opacity="1" fill-rule="nonzero" stroke="none"></path></g><g id="g4442" transform="translate(1822.5846,758.67543)"><path d="m 0,0 2.828,0.925 1.908,-5.886 c 0.053,-0.17 0.118,-0.307 0.198,-0.41 0.171,-0.223 0.402,-0.351 0.691,-0.385 0.289,-0.034 0.547,0.037 0.773,0.212 0.228,0.174 0.358,0.404 0.391,0.69 0.033,0.285 -0.038,0.543 -0.217,0.774 -0.177,0.231 -0.408,0.366 -0.69,0.405 C 5.599,-3.637 5.344,-3.705 5.117,-3.879 5.063,-3.921 4.989,-3.991 4.895,-4.09 l -0.86,3.203 c 1.167,0.294 2.134,0.343 2.9,0.147 C 7.7,-0.936 8.363,-1.399 8.926,-2.129 9.632,-3.045 9.913,-4.058 9.771,-5.167 9.629,-6.275 9.104,-7.179 8.195,-7.878 7.337,-8.539 6.345,-8.802 5.219,-8.667 4.093,-8.532 3.205,-8.043 2.557,-7.201 2.259,-6.813 1.938,-6.086 1.598,-5.021 Z" id="path4444" fill="#bbd3dc" fill-opacity="1" fill-rule="nonzero" stroke="none"></path></g><g id="g4446" transform="translate(1835.5134,767.17933)"><path d="m 0,0 1.614,-2.602 -2.229,-1.384 0.136,-0.486 c 0.959,0.271 1.771,0.306 2.435,0.105 0.909,-0.27 1.624,-0.825 2.147,-1.666 0.551,-0.889 0.683,-1.83 0.394,-2.821 -0.289,-0.992 -0.929,-1.795 -1.92,-2.41 -0.669,-0.415 -1.436,-0.649 -2.304,-0.703 l -1.384,2.23 c 0.674,0.07 1.209,0.226 1.602,0.47 0.407,0.253 0.672,0.546 0.793,0.879 0.121,0.332 0.083,0.658 -0.114,0.977 -0.223,0.358 -0.594,0.548 -1.112,0.569 -0.519,0.022 -1.046,-0.134 -1.582,-0.466 -0.204,-0.127 -0.451,-0.332 -0.74,-0.616 l -1.945,5.312 z" id="path4448" fill="#bbd3dc" fill-opacity="1" fill-rule="nonzero" stroke="none"></path></g><g id="g4450" transform="translate(1769.7497,684.60273)"><path d="m 0,0 3.06,0.12 0.103,-2.623 0.489,-0.122 c 0.239,0.969 0.609,1.692 1.112,2.17 C 5.446,0.203 6.282,0.551 7.271,0.59 8.317,0.631 9.2,0.281 9.92,-0.459 c 0.72,-0.741 1.102,-1.694 1.148,-2.86 0.031,-0.786 -0.144,-1.57 -0.526,-2.35 L 7.92,-5.772 c 0.272,0.62 0.399,1.162 0.382,1.625 -0.02,0.479 -0.144,0.853 -0.373,1.123 -0.23,0.27 -0.532,0.398 -0.907,0.383 C 6.602,-2.658 6.253,-2.886 5.979,-3.327 5.704,-3.768 5.579,-4.303 5.604,-4.933 5.613,-5.172 5.67,-5.488 5.773,-5.88 l -5.58,0.931 z" id="path4452" fill="#bbd3dc" fill-opacity="1" fill-rule="nonzero" stroke="none"></path></g><g id="g4454" transform="translate(1777.5827,694.72773)"><path d="m 0,0 3.084,-0.121 -0.271,-6.885 -6.282,3.671 -0.214,0.126 c -0.169,0.1 -0.336,0.153 -0.502,0.16 -0.421,0.016 -0.642,-0.222 -0.662,-0.717 -0.007,-0.192 0.058,-0.363 0.196,-0.512 0.137,-0.149 0.302,-0.227 0.495,-0.234 0.218,-0.009 0.42,0.077 0.604,0.258 l 2.382,-1.462 c -0.376,-0.559 -0.844,-0.981 -1.402,-1.266 -0.559,-0.286 -1.168,-0.416 -1.829,-0.39 -1.026,0.04 -1.89,0.436 -2.592,1.188 -0.703,0.752 -1.034,1.641 -0.994,2.666 0.04,1.031 0.436,1.892 1.187,2.584 0.752,0.693 1.646,1.019 2.682,0.978 0.593,-0.023 1.139,-0.177 1.639,-0.462 l 2.41,-1.362 z" id="path4456" fill="#bbd3dc" fill-opacity="1" fill-rule="nonzero" stroke="none"></path></g><g id="g4458" transform="translate(1774.0348,699.62763)"><path d="m 0,0 3.568,-0.425 c 0.647,-0.077 1,0.135 1.06,0.637 0.06,0.507 -0.232,0.799 -0.879,0.876 L 0.181,1.513 C -0.466,1.59 -0.819,1.375 -0.88,0.868 -0.939,0.367 -0.646,0.077 0,0 m 2.589,-3.369 -2.327,0.278 c -1.356,0.161 -2.386,0.626 -3.092,1.395 -0.705,0.768 -0.989,1.734 -0.851,2.898 0.139,1.163 0.642,2.037 1.509,2.621 0.866,0.584 1.978,0.795 3.332,0.634 L 3.488,4.18 C 4.843,4.018 5.874,3.552 6.582,2.78 7.29,2.009 7.575,1.042 7.437,-0.123 7.298,-1.286 6.794,-2.158 5.925,-2.739 5.056,-3.32 3.943,-3.53 2.589,-3.369" id="path4460" fill="#bbd3dc" fill-opacity="1" fill-rule="nonzero" stroke="none"></path></g><g id="g4462" transform="translate(1771.4899,708.67053)"><path d="M 0,0 1.526,2.554 6.829,-0.634 C 6.98,-0.728 7.12,-0.788 7.248,-0.814 7.523,-0.87 7.781,-0.815 8.021,-0.651 8.262,-0.487 8.41,-0.264 8.467,0.017 8.523,0.297 8.471,0.556 8.309,0.793 8.146,1.031 7.923,1.178 7.637,1.236 7.351,1.293 7.088,1.244 6.85,1.087 6.61,0.931 6.463,0.712 6.406,0.431 6.394,0.365 6.384,0.263 6.377,0.126 L 3.626,1.979 C 4.314,2.967 5.011,3.638 5.717,3.993 6.424,4.348 7.229,4.434 8.132,4.252 9.266,4.023 10.143,3.444 10.763,2.515 11.384,1.585 11.58,0.558 11.354,-0.565 11.141,-1.627 10.564,-2.477 9.626,-3.114 8.688,-3.751 7.697,-3.964 6.655,-3.755 6.176,-3.658 5.457,-3.32 4.501,-2.739 Z" id="path4464" fill="#bbd3dc" fill-opacity="1" fill-rule="nonzero" stroke="none"></path></g><g id="g4466" transform="translate(1775.4782,723.35223)"><path d="M 0,0 10.252,-2.938 9.425,-5.821 1.6,-3.579 3.772,-5.583 3.953,-4.952 6.184,-5.591 5.036,-9.594 -1.289,-4.499 Z" id="path4468" fill="#bbd3dc" fill-opacity="1" fill-rule="nonzero" stroke="none"></path></g><g id="g4470" transform="translate(1788.28,726.41323)"><path d="m 0,0 -1.916,-2.276 -4.725,3.995 c -0.135,0.112 -0.266,0.192 -0.393,0.239 -0.264,0.1 -0.527,0.087 -0.79,-0.036 -0.264,-0.124 -0.446,-0.32 -0.547,-0.588 -0.101,-0.268 -0.09,-0.532 0.032,-0.792 0.122,-0.26 0.319,-0.441 0.593,-0.544 0.278,-0.104 0.547,-0.099 0.808,0.018 0.26,0.116 0.442,0.311 0.544,0.584 0.023,0.058 0.047,0.154 0.076,0.288 l 2.422,-2.262 c -0.844,-0.868 -1.642,-1.421 -2.393,-1.659 -0.752,-0.238 -1.562,-0.193 -2.429,0.133 -1.078,0.405 -1.848,1.116 -2.311,2.133 -0.464,1.017 -0.494,2.062 -0.091,3.135 0.381,1.013 1.086,1.76 2.114,2.239 1.028,0.478 2.04,0.531 3.034,0.157 0.463,-0.174 1.118,-0.623 1.964,-1.347 z" id="path4472" fill="#bbd3dc" fill-opacity="1" fill-rule="nonzero" stroke="none"></path></g><g id="g4474" transform="translate(1789.5983,737.69443)"><path d="m 0,0 2.792,-1.314 -2.935,-6.235 -4.352,5.831 -0.149,0.199 c -0.115,0.158 -0.249,0.273 -0.399,0.344 -0.382,0.179 -0.678,0.045 -0.889,-0.402 -0.082,-0.175 -0.089,-0.357 -0.02,-0.548 0.068,-0.19 0.19,-0.327 0.364,-0.409 0.198,-0.093 0.417,-0.092 0.657,0.002 l 1.623,-2.275 c -0.564,-0.368 -1.159,-0.574 -1.785,-0.619 -0.625,-0.045 -1.237,0.073 -1.836,0.355 -0.928,0.437 -1.569,1.138 -1.923,2.105 -0.354,0.966 -0.312,1.914 0.124,2.842 0.44,0.934 1.14,1.572 2.103,1.916 0.962,0.345 1.912,0.296 2.85,-0.145 0.537,-0.252 0.98,-0.608 1.329,-1.065 l 1.687,-2.194 z" id="path4476" fill="#bbd3dc" fill-opacity="1" fill-rule="nonzero" stroke="none"></path></g><g id="g4478" transform="translate(1784.4401,744.67983)"><path d="M 0,0 2.255,1.941 6.28,-2.758 C 6.394,-2.895 6.507,-2.996 6.62,-3.061 6.864,-3.2 7.126,-3.23 7.406,-3.15 c 0.28,0.08 0.49,0.244 0.633,0.492 0.143,0.249 0.174,0.512 0.095,0.788 C 8.056,-1.594 7.89,-1.384 7.636,-1.239 7.383,-1.094 7.118,-1.058 6.843,-1.131 6.566,-1.204 6.357,-1.365 6.215,-1.613 6.182,-1.672 6.141,-1.766 6.091,-1.894 L 4.065,0.733 C 5.03,1.454 5.903,1.87 6.686,1.984 7.468,2.097 8.259,1.925 9.059,1.467 10.063,0.892 10.712,0.066 11.007,-1.012 11.302,-2.09 11.164,-3.126 10.595,-4.121 10.057,-5.061 9.242,-5.686 8.15,-5.994 7.059,-6.302 6.052,-6.192 5.13,-5.664 c -0.425,0.243 -1,0.791 -1.724,1.644 z" id="path4480" fill="#bbd3dc" fill-opacity="1" fill-rule="nonzero" stroke="none"></path></g><g id="g4482" transform="translate(1800.6589,749.31753)"><path d="M 0,0 -2.401,-1.755 -6.04,3.249 C -6.146,3.391 -6.254,3.5 -6.366,3.576 -6.598,3.734 -6.856,3.785 -7.142,3.728 -7.428,3.67 -7.65,3.523 -7.813,3.287 -7.974,3.05 -8.026,2.792 -7.97,2.51 c 0.057,-0.282 0.205,-0.505 0.447,-0.67 0.245,-0.167 0.507,-0.225 0.789,-0.174 0.28,0.05 0.503,0.196 0.668,0.437 0.035,0.052 0.082,0.139 0.141,0.263 l 1.815,-2.773 c -1.027,-0.643 -1.933,-0.99 -2.719,-1.042 -0.787,-0.053 -1.563,0.183 -2.328,0.706 -0.95,0.649 -1.53,1.523 -1.738,2.621 -0.209,1.099 0.011,2.121 0.658,3.067 0.611,0.894 1.473,1.451 2.586,1.672 1.112,0.22 2.107,0.03 2.985,-0.569 0.408,-0.279 0.937,-0.871 1.587,-1.776 z" id="path4484" fill="#bbd3dc" fill-opacity="1" fill-rule="nonzero" stroke="none"></path></g><g id="g4486" transform="translate(1795.03,760.65103)"><path d="m 0,0 2.534,1.559 3.23,-5.278 c 0.09,-0.153 0.186,-0.271 0.287,-0.352 0.219,-0.177 0.472,-0.248 0.762,-0.214 0.289,0.035 0.523,0.163 0.703,0.387 0.18,0.222 0.253,0.477 0.218,0.762 C 7.7,-2.851 7.57,-2.617 7.343,-2.434 7.116,-2.25 6.86,-2.173 6.576,-2.201 6.293,-2.23 6.061,-2.355 5.881,-2.579 5.838,-2.631 5.782,-2.717 5.714,-2.835 L 4.131,0.08 C 5.197,0.638 6.125,0.911 6.915,0.898 7.706,0.887 8.459,0.591 9.177,0.012 c 0.899,-0.726 1.409,-1.645 1.53,-2.756 0.12,-1.111 -0.18,-2.113 -0.899,-3.005 -0.681,-0.842 -1.584,-1.33 -2.711,-1.461 -1.126,-0.131 -2.104,0.137 -2.93,0.804 -0.381,0.308 -0.861,0.94 -1.441,1.897 z" id="path4488" fill="#bbd3dc" fill-opacity="1" fill-rule="nonzero" stroke="none"></path></g><g id="g4490" transform="translate(1810.6169,766.87273)"><path d="m 0,0 -3.044,-3.219 c -0.209,0.105 -0.382,0.222 -0.518,0.351 -0.189,0.179 -0.342,0.388 -0.459,0.628 l 1.019,1.078 c -0.491,0.322 -0.925,0.284 -1.301,-0.113 -0.251,-0.265 -0.342,-0.587 -0.274,-0.967 0.068,-0.379 0.277,-0.735 0.63,-1.068 0.367,-0.347 0.74,-0.548 1.119,-0.602 0.379,-0.053 0.692,0.05 0.939,0.311 0.201,0.212 0.287,0.517 0.262,0.914 L 0.97,-2.852 C 0.879,-3.835 0.508,-4.67 -0.144,-5.359 c -0.794,-0.84 -1.743,-1.28 -2.847,-1.318 -1.105,-0.038 -2.072,0.337 -2.905,1.124 -0.83,0.783 -1.256,1.734 -1.282,2.852 -0.026,1.117 0.359,2.096 1.153,2.936 0.777,0.821 1.708,1.247 2.794,1.277 1.085,0.03 2.038,-0.341 2.855,-1.114 C -0.293,0.32 -0.168,0.187 0,0" id="path4492" fill="#bbd3dc" fill-opacity="1" fill-rule="nonzero" stroke="none"></path></g><g id="g4494" transform="translate(1807.8639,774.60613)"><path d="m 0,0 2.746,1.144 2.365,-5.718 c 0.066,-0.165 0.142,-0.297 0.229,-0.393 0.188,-0.209 0.429,-0.319 0.719,-0.33 0.291,-0.011 0.543,0.08 0.754,0.272 0.213,0.192 0.326,0.431 0.336,0.718 C 7.16,-4.02 7.067,-3.768 6.872,-3.551 6.677,-3.335 6.437,-3.219 6.151,-3.202 5.866,-3.186 5.617,-3.274 5.405,-3.466 5.354,-3.511 5.286,-3.587 5.2,-3.693 l -1.108,3.126 c 1.14,0.384 2.1,0.509 2.879,0.374 0.778,-0.136 1.476,-0.545 2.094,-1.229 0.776,-0.858 1.136,-1.846 1.081,-2.962 C 10.091,-5.5 9.639,-6.443 8.788,-7.211 7.984,-7.937 7.016,-8.277 5.883,-8.23 4.749,-8.184 3.826,-7.767 3.114,-6.978 2.786,-6.615 2.41,-5.916 1.987,-4.88 Z" id="path4496" fill="#bbd3dc" fill-opacity="1" fill-rule="nonzero" stroke="none"></path></g><g id="g4498" transform="translate(1815.1354,780.84633)"><path d="m 0,0 2.828,0.923 1.905,-5.887 c 0.052,-0.171 0.118,-0.307 0.197,-0.411 0.172,-0.223 0.402,-0.351 0.691,-0.385 0.288,-0.034 0.547,0.036 0.774,0.211 0.227,0.174 0.357,0.404 0.391,0.69 0.033,0.285 -0.039,0.543 -0.217,0.775 -0.177,0.23 -0.408,0.366 -0.69,0.404 C 5.596,-3.641 5.341,-3.708 5.114,-3.883 5.061,-3.924 4.986,-3.995 4.892,-4.094 L 4.034,-0.89 c 1.168,0.293 2.134,0.342 2.9,0.145 0.765,-0.197 1.428,-0.66 1.991,-1.391 C 9.629,-3.053 9.91,-4.065 9.767,-5.174 9.624,-6.283 9.099,-7.186 8.189,-7.884 7.331,-8.545 6.339,-8.807 5.212,-8.671 4.086,-8.535 3.199,-8.045 2.552,-7.203 2.253,-6.815 1.935,-6.088 1.595,-5.022 Z" id="path4500" fill="#bbd3dc" fill-opacity="1" fill-rule="nonzero" stroke="none"></path></g><g id="g4502" transform="translate(1822.8981,786.50263)"><path d="m 0,0 2.893,0.695 1.429,-6.02 c 0.039,-0.174 0.094,-0.316 0.164,-0.425 0.154,-0.236 0.372,-0.382 0.659,-0.439 0.285,-0.057 0.547,-0.008 0.788,0.148 0.24,0.156 0.388,0.375 0.444,0.657 0.057,0.281 0.005,0.545 -0.153,0.79 C 6.064,-4.35 5.846,-4.197 5.567,-4.136 5.288,-4.075 5.028,-4.122 4.788,-4.278 4.731,-4.315 4.652,-4.379 4.55,-4.47 l -0.6,3.262 c 1.188,0.199 2.154,0.17 2.903,-0.086 C 7.6,-1.551 8.225,-2.066 8.726,-2.839 9.355,-3.81 9.555,-4.841 9.324,-5.935 9.094,-7.028 8.497,-7.887 7.536,-8.511 6.628,-9.101 5.617,-9.283 4.506,-9.058 3.394,-8.833 2.549,-8.274 1.97,-7.383 c -0.267,0.41 -0.527,1.16 -0.781,2.25 z" id="path4504" fill="#bbd3dc" fill-opacity="1" fill-rule="nonzero" stroke="none"></path></g><g id="g4506" transform="translate(1835.3171,788.24963)"><path d="m 0,0 1.5,-2.67 -1.138,-0.639 1.47,-2.615 -2.547,-1.432 -3.242,5.769 c -0.364,0.649 -0.564,1.266 -0.6,1.849 -0.047,0.744 0.112,1.463 0.478,2.155 0.366,0.693 0.86,1.214 1.482,1.564 L -2.32,4.127 -0.819,1.458 C -0.881,1.429 -0.926,1.407 -0.953,1.392 -1.275,1.21 -1.464,0.964 -1.519,0.652 -1.573,0.341 -1.49,-0.013 -1.268,-0.408 l 0.13,-0.231 z" id="path4508" fill="#bbd3dc" fill-opacity="1" fill-rule="nonzero" stroke="none"></path></g><g id="g4510" transform="translate(1873.2399,567.46693)"><path d="M 0,0 0.987,10.618 3.975,10.341 3.221,2.234 4.788,4.741 4.135,4.802 4.35,7.112 8.495,6.727 4.66,-0.434 Z" id="path4512" fill="#bbd3dc" fill-opacity="1" fill-rule="nonzero" stroke="none"></path></g><g id="g4514" transform="translate(1867.8551,572.93863)"><path d="M 0,0 0.459,3.028 1.749,2.833 2.198,5.799 5.087,5.361 4.097,-1.181 C 3.984,-1.917 3.764,-2.526 3.433,-3.008 3.013,-3.624 2.445,-4.093 1.73,-4.414 1.016,-4.735 0.305,-4.842 -0.4,-4.735 l -0.308,0.054 0.458,3.029 c 0.066,-0.016 0.115,-0.026 0.146,-0.031 0.366,-0.055 0.666,0.023 0.901,0.236 0.234,0.212 0.386,0.542 0.454,0.989 l 0.039,0.263 z" id="path4516" fill="#bbd3dc" fill-opacity="1" fill-rule="nonzero" stroke="none"></path></g><g id="g4518" transform="translate(1863.4479,568.76383)"><path d="M 0,0 -2.539,1.551 0.698,6.823 C 0.793,6.974 0.854,7.112 0.882,7.239 0.939,7.515 0.888,7.773 0.726,8.015 0.564,8.257 0.343,8.407 0.063,8.467 -0.218,8.526 -0.477,8.476 -0.716,8.315 -0.954,8.155 -1.104,7.933 -1.164,7.647 -1.225,7.362 -1.178,7.1 -1.023,6.859 -0.869,6.619 -0.651,6.47 -0.371,6.41 -0.306,6.396 -0.204,6.386 -0.067,6.378 L -1.945,3.645 c -0.982,0.697 -1.647,1.4 -1.994,2.11 -0.348,0.709 -0.427,1.516 -0.237,2.417 0.239,1.132 0.826,2.003 1.762,2.614 0.935,0.611 1.964,0.799 3.085,0.563 C 1.731,11.124 2.575,10.54 3.204,9.597 3.832,8.651 4.036,7.659 3.816,6.62 3.716,6.142 3.37,5.426 2.781,4.476 Z" id="path4520" fill="#bbd3dc" fill-opacity="1" fill-rule="nonzero" stroke="none"></path></g><g id="g4522" transform="translate(1853.3981,578.85463)"><path d="m 0,0 -2.815,0.695 c 0.39,1.059 1.048,1.832 1.974,2.319 0.926,0.487 1.909,0.582 2.95,0.282 C 3.211,2.979 4.03,2.33 4.569,1.346 5.107,0.361 5.217,-0.686 4.897,-1.797 4.594,-2.854 3.951,-3.646 2.97,-4.178 1.988,-4.709 0.962,-4.82 -0.109,-4.512 c -0.937,0.269 -1.678,0.801 -2.224,1.598 -0.546,0.797 -0.775,1.678 -0.687,2.644 l 2.876,-0.712 c 0.153,-0.391 0.417,-0.641 0.793,-0.748 0.321,-0.092 0.614,-0.063 0.879,0.088 0.266,0.152 0.445,0.388 0.536,0.708 0.094,0.325 0.064,0.629 -0.091,0.913 C 1.818,0.261 1.579,0.449 1.253,0.543 0.778,0.68 0.36,0.498 0,0" id="path4524" fill="#bbd3dc" fill-opacity="1" fill-rule="nonzero" stroke="none"></path></g><g id="g4526" transform="translate(1840.0563,575.95323)"><path d="M 0,0 6.586,8.942 9.63,7.825 4.745,1.521 7.811,0.396 6.755,-2.479 Z" id="path4528" fill="#bbd3dc" fill-opacity="1" fill-rule="nonzero" stroke="none"></path></g><g id="g4530" transform="translate(1837.4587,589.07143)"><path d="m 0,0 2.148,-2.059 -4.292,-4.457 c -0.121,-0.127 -0.209,-0.254 -0.264,-0.377 -0.116,-0.255 -0.121,-0.519 -0.015,-0.791 0.107,-0.27 0.29,-0.464 0.551,-0.583 0.262,-0.118 0.526,-0.124 0.793,-0.018 0.267,0.104 0.461,0.29 0.581,0.556 0.122,0.27 0.134,0.54 0.035,0.807 -0.1,0.268 -0.282,0.461 -0.548,0.581 -0.056,0.027 -0.151,0.058 -0.283,0.094 l 2.413,2.27 c 0.813,-0.898 1.313,-1.729 1.501,-2.494 0.19,-0.765 0.093,-1.57 -0.289,-2.416 -0.474,-1.049 -1.232,-1.771 -2.277,-2.169 -1.045,-0.397 -2.09,-0.359 -3.134,0.113 -0.987,0.445 -1.687,1.197 -2.099,2.254 -0.411,1.056 -0.398,2.07 0.039,3.039 0.203,0.45 0.695,1.074 1.472,1.872 z" id="path4532" fill="#bbd3dc" fill-opacity="1" fill-rule="nonzero" stroke="none"></path></g><g id="g4534" transform="translate(1827.2087,581.56073)"><path d="M 0,0 -1.994,2.208 2.607,6.344 C 2.741,6.46 2.84,6.576 2.901,6.69 3.035,6.938 3.06,7.2 2.973,7.479 2.887,7.757 2.717,7.964 2.465,8.1 2.213,8.235 1.95,8.262 1.676,8.176 1.401,8.091 1.195,7.919 1.056,7.663 0.917,7.407 0.888,7.142 0.968,6.867 1.047,6.593 1.213,6.388 1.465,6.251 1.524,6.22 1.618,6.181 1.747,6.134 L -0.83,4.047 c -0.743,0.946 -1.181,1.809 -1.313,2.589 -0.131,0.779 0.022,1.574 0.46,2.385 0.551,1.017 1.362,1.685 2.432,2.005 1.071,0.322 2.11,0.209 3.118,-0.336 C 4.82,10.175 5.463,9.374 5.798,8.29 6.132,7.206 6.046,6.197 5.54,5.263 5.307,4.832 4.772,4.245 3.938,3.501 Z" id="path4536" fill="#bbd3dc" fill-opacity="1" fill-rule="nonzero" stroke="none"></path></g><g id="g4538" transform="translate(1816.5954,588.14763)"><path d="M 0,0 -2.462,1.574 1.035,7.045 C 1.678,8.049 2.464,8.699 3.395,8.994 3.93,9.166 4.5,9.209 5.105,9.125 5.71,9.041 6.258,8.842 6.75,8.528 7.729,7.902 8.343,7.046 8.594,5.959 8.844,4.871 8.663,3.85 8.052,2.893 7.46,1.967 6.614,1.379 5.516,1.129 4.417,0.881 3.41,1.047 2.498,1.631 2.353,1.723 2.142,1.877 1.865,2.091 L 3.599,4.803 C 3.699,4.516 3.851,4.308 4.053,4.179 4.308,4.016 4.585,3.97 4.887,4.04 5.188,4.109 5.423,4.277 5.591,4.54 5.754,4.795 5.799,5.073 5.727,5.376 5.654,5.679 5.486,5.914 5.223,6.082 4.591,6.486 3.996,6.252 3.438,5.379 Z" id="path4540" fill="#bbd3dc" fill-opacity="1" fill-rule="nonzero" stroke="none"></path></g><g id="g4542" transform="translate(1806.571,595.28233)"><path d="M 0,0 8.863,6.691 11.462,4.753 4.981,0.104 7.599,-1.849 5.768,-4.304 Z" id="path4544" fill="#bbd3dc" fill-opacity="1" fill-rule="nonzero" stroke="none"></path></g><g id="g4546" transform="translate(1804.8024,601.35853)"><path d="M 0,0 2.351,2.72 C 2.776,3.213 2.798,3.623 2.416,3.954 2.029,4.287 1.623,4.209 1.198,3.716 L -1.152,0.997 C -1.578,0.504 -1.598,0.092 -1.212,-0.242 -0.829,-0.573 -0.425,-0.492 0,0 M 4.241,0.26 2.708,-1.514 c -0.892,-1.032 -1.854,-1.626 -2.886,-1.78 -1.032,-0.155 -1.991,0.151 -2.878,0.917 -0.886,0.767 -1.329,1.672 -1.328,2.718 0.002,1.045 0.449,2.084 1.341,3.116 L -1.51,5.23 C -0.618,6.263 0.346,6.856 1.382,7.012 2.417,7.166 3.378,6.859 4.265,6.094 5.151,5.328 5.592,4.422 5.587,3.377 5.582,2.331 5.134,1.292 4.241,0.26" id="path4548" fill="#bbd3dc" fill-opacity="1" fill-rule="nonzero" stroke="none"></path></g><g id="g4550" transform="translate(1795.8356,604.32433)"><path d="M 0,0 -1.285,2.683 4.302,5.342 C 4.464,5.416 4.591,5.499 4.683,5.591 4.881,5.791 4.979,6.036 4.975,6.327 4.971,6.617 4.867,6.864 4.664,7.066 4.461,7.269 4.216,7.368 3.929,7.364 3.642,7.359 3.396,7.254 3.189,7.048 2.983,6.841 2.88,6.595 2.878,6.31 2.877,6.024 2.978,5.781 3.18,5.578 3.228,5.53 3.308,5.466 3.418,5.385 L 0.354,4.116 C -0.09,5.235 -0.265,6.187 -0.17,6.972 -0.075,7.756 0.298,8.475 0.949,9.127 1.766,9.946 2.732,10.357 3.851,10.36 4.968,10.364 5.933,9.961 6.744,9.152 7.511,8.387 7.9,7.437 7.913,6.303 7.926,5.169 7.557,4.226 6.807,3.473 6.461,3.126 5.782,2.715 4.77,2.238 Z" id="path4552" fill="#bbd3dc" fill-opacity="1" fill-rule="nonzero" stroke="none"></path></g><g id="g4554" transform="translate(1795.4352,621.28623)"><path d="m 0,0 1.09,-2.768 -5.762,-2.253 c -0.164,-0.067 -0.297,-0.144 -0.398,-0.233 -0.213,-0.184 -0.327,-0.422 -0.344,-0.712 -0.017,-0.291 0.069,-0.544 0.257,-0.761 0.187,-0.216 0.425,-0.332 0.712,-0.349 0.287,-0.016 0.54,0.072 0.76,0.263 0.224,0.194 0.347,0.434 0.369,0.719 0.022,0.284 -0.063,0.536 -0.254,0.757 -0.041,0.047 -0.114,0.115 -0.218,0.204 l 3.142,1.053 c 0.362,-1.155 0.468,-2.12 0.32,-2.894 -0.149,-0.774 -0.572,-1.465 -1.273,-2.073 -0.869,-0.755 -1.861,-1.095 -2.976,-1.018 -1.114,0.076 -2.048,0.547 -2.8,1.412 -0.71,0.818 -1.031,1.793 -0.963,2.925 0.068,1.132 0.504,2.047 1.306,2.744 0.373,0.324 1.08,0.686 2.119,1.086 z" id="path4556" fill="#bbd3dc" fill-opacity="1" fill-rule="nonzero" stroke="none"></path></g><g id="g4558" transform="translate(1782.9792,618.75263)"><path d="M 0,0 -0.89,2.838 5.019,4.675 C 5.189,4.725 5.327,4.789 5.432,4.867 5.656,5.036 5.788,5.265 5.825,5.553 5.862,5.842 5.795,6.101 5.623,6.33 5.451,6.559 5.223,6.692 4.938,6.729 4.653,6.766 4.394,6.696 4.161,6.521 3.928,6.346 3.79,6.118 3.748,5.835 3.705,5.553 3.771,5.297 3.942,5.068 3.983,5.014 4.053,4.939 4.15,4.843 L 0.937,4.023 C 0.657,5.194 0.62,6.161 0.825,6.924 1.031,7.688 1.502,8.346 2.239,8.899 3.164,9.593 4.181,9.862 5.287,9.706 6.394,9.55 7.291,9.014 7.979,8.098 8.629,7.231 8.88,6.235 8.73,5.111 8.582,3.986 8.082,3.105 7.232,2.468 6.841,2.174 6.11,1.863 5.04,1.536 Z" id="path4560" fill="#bbd3dc" fill-opacity="1" fill-rule="nonzero" stroke="none"></path></g><g id="g4562" transform="translate(1775.8757,629.49383)"><path d="M 0,0 8.966,5.774 10.603,3.232 1.637,-2.542 Z" id="path4564" fill="#bbd3dc" fill-opacity="1" fill-rule="nonzero" stroke="none"></path></g><g id="g4566" transform="translate(1772.3083,634.87123)"><path d="M 0,0 -0.475,2.937 5.636,3.909 C 5.812,3.934 5.957,3.978 6.071,4.041 6.318,4.175 6.48,4.383 6.559,4.663 6.638,4.943 6.607,5.209 6.471,5.46 6.333,5.712 6.126,5.876 5.85,5.954 5.572,6.031 5.307,6 5.05,5.859 4.794,5.72 4.625,5.513 4.543,5.24 4.461,4.966 4.489,4.704 4.626,4.453 4.659,4.393 4.717,4.309 4.8,4.2 L 1.502,3.849 C 1.393,5.047 1.494,6.009 1.807,6.735 2.119,7.461 2.68,8.045 3.489,8.487 4.504,9.042 5.548,9.163 6.62,8.851 7.693,8.538 8.505,7.879 9.055,6.874 9.574,5.923 9.68,4.902 9.371,3.81 9.063,2.718 8.442,1.918 7.511,1.408 7.081,1.173 6.313,0.97 5.208,0.799 Z" id="path4568" fill="#bbd3dc" fill-opacity="1" fill-rule="nonzero" stroke="none"></path></g><g id="g4570" transform="translate(1765.8083,648.73013)"><path d="m 0,0 9.701,4.427 1.245,-2.73 -7.405,-3.379 2.953,-0.112 -0.272,0.597 2.111,0.964 1.729,-3.789 -8.12,-0.235 z" id="path4572" fill="#bbd3dc" fill-opacity="1" fill-rule="nonzero" stroke="none"></path></g><g id="g4574" transform="translate(1764.0514,652.37273)"><path d="M 0,0 -0.047,2.975 6.14,3.057 c 0.177,0 0.328,0.022 0.45,0.068 C 6.854,3.222 7.044,3.404 7.162,3.67 7.28,3.937 7.289,4.204 7.189,4.472 7.089,4.741 6.908,4.933 6.646,5.049 6.383,5.166 6.114,5.173 5.841,5.071 5.567,4.97 5.371,4.79 5.25,4.531 5.13,4.272 5.119,4.009 5.219,3.74 5.243,3.677 5.288,3.585 5.354,3.465 L 2.04,3.592 C 2.104,4.794 2.344,5.732 2.758,6.405 3.172,7.078 3.811,7.576 4.675,7.896 5.759,8.299 6.809,8.269 7.826,7.805 8.843,7.341 9.551,6.572 9.95,5.498 10.327,4.482 10.285,3.457 9.822,2.421 9.36,1.385 8.631,0.682 7.635,0.312 7.176,0.142 6.387,0.051 5.269,0.042 Z" id="path4576" fill="#bbd3dc" fill-opacity="1" fill-rule="nonzero" stroke="none"></path></g><g id="g4578" transform="translate(1759.903,666.03823)"><path d="m 0,0 2.94,0.856 0.734,-2.521 0.505,0.001 C 4.176,-0.667 4.36,0.125 4.732,0.71 5.236,1.514 5.963,2.053 6.913,2.33 7.919,2.623 8.859,2.497 9.737,1.952 c 0.877,-0.545 1.479,-1.377 1.805,-2.497 0.22,-0.755 0.239,-1.558 0.059,-2.408 L 9.08,-3.687 c 0.115,0.668 0.108,1.225 -0.022,1.67 -0.134,0.46 -0.345,0.793 -0.633,0.999 C 8.137,-0.811 7.813,-0.76 7.453,-0.865 7.048,-0.983 6.766,-1.289 6.605,-1.783 6.445,-2.277 6.454,-2.827 6.63,-3.432 6.697,-3.662 6.828,-3.955 7.024,-4.31 L 1.385,-4.756 Z" id="path4580" fill="#bbd3dc" fill-opacity="1" fill-rule="nonzero" stroke="none"></path></g><g id="g4582" transform="translate(1764.9723,677.88633)"><path d="m 0,0 3.018,0.646 1.443,-6.737 -6.996,2.001 -0.238,0.068 c -0.188,0.056 -0.364,0.066 -0.527,0.031 -0.412,-0.088 -0.566,-0.374 -0.463,-0.858 0.04,-0.189 0.146,-0.338 0.316,-0.448 0.17,-0.11 0.349,-0.144 0.538,-0.104 0.214,0.046 0.388,0.179 0.521,0.399 l 2.67,-0.826 c -0.226,-0.634 -0.574,-1.159 -1.045,-1.574 -0.47,-0.415 -1.029,-0.692 -1.675,-0.83 -1.003,-0.215 -1.939,-0.046 -2.806,0.509 -0.867,0.555 -1.408,1.333 -1.623,2.337 -0.216,1.008 -0.046,1.941 0.511,2.798 0.556,0.857 1.341,1.394 2.355,1.611 0.581,0.124 1.148,0.11 1.703,-0.043 l 2.671,-0.722 z" id="path4584" fill="#bbd3dc" fill-opacity="1" fill-rule="nonzero" stroke="none"></path></g><g id="g4586" transform="translate(1760.279,681.83263)"><path d="M 0,0 3.559,0.498 C 4.204,0.588 4.491,0.883 4.421,1.384 4.351,1.889 3.993,2.097 3.348,2.007 L -0.211,1.509 C -0.855,1.418 -1.143,1.121 -1.072,0.615 -1.002,0.115 -0.645,-0.09 0,0 M 3.361,-2.598 1.04,-2.923 c -1.352,-0.189 -2.466,-0.002 -3.345,0.561 -0.878,0.564 -1.398,1.426 -1.56,2.586 -0.162,1.161 0.101,2.134 0.79,2.919 0.69,0.786 1.711,1.273 3.061,1.462 L 2.308,4.93 C 3.659,5.119 4.775,4.931 5.656,4.365 6.538,3.799 7.06,2.937 7.222,1.776 7.385,0.615 7.119,-0.357 6.427,-1.14 5.734,-1.923 4.713,-2.409 3.361,-2.598" id="path4588" fill="#bbd3dc" fill-opacity="1" fill-rule="nonzero" stroke="none"></path></g><g id="g4590" transform="translate(1755.4831,690.00503)"><path d="M 0,0 0.801,2.865 6.756,1.184 C 6.927,1.132 7.076,1.111 7.206,1.12 7.487,1.139 7.722,1.259 7.91,1.48 8.099,1.702 8.184,1.956 8.164,2.241 8.146,2.527 8.026,2.763 7.808,2.949 7.589,3.136 7.334,3.219 7.043,3.199 6.752,3.18 6.512,3.063 6.322,2.85 6.134,2.636 6.049,2.386 6.067,2.1 6.072,2.033 6.09,1.932 6.119,1.798 L 2.979,2.863 C 3.382,3.997 3.878,4.828 4.467,5.355 5.055,5.883 5.809,6.178 6.729,6.24 7.882,6.317 8.881,5.989 9.724,5.255 10.566,4.521 11.026,3.583 11.104,2.439 11.176,1.358 10.844,0.387 10.105,-0.474 9.367,-1.336 8.468,-1.802 7.408,-1.874 6.92,-1.906 6.138,-1.769 5.063,-1.46 Z" id="path4592" fill="#bbd3dc" fill-opacity="1" fill-rule="nonzero" stroke="none"></path></g><g id="g4594" transform="translate(1763.0114,705.12563)"><path d="m 0,0 3.086,-0.05 -0.111,-6.889 -6.367,3.525 -0.216,0.121 c -0.17,0.096 -0.339,0.146 -0.505,0.148 -0.422,0.007 -0.637,-0.237 -0.646,-0.731 -0.003,-0.193 0.067,-0.362 0.207,-0.508 0.141,-0.145 0.308,-0.22 0.5,-0.223 0.219,-0.003 0.419,0.087 0.599,0.272 l 2.415,-1.407 c -0.363,-0.567 -0.821,-1 -1.373,-1.298 -0.552,-0.298 -1.158,-0.442 -1.819,-0.431 -1.027,0.016 -1.899,0.392 -2.62,1.128 -0.719,0.736 -1.071,1.616 -1.054,2.642 0.016,1.032 0.392,1.902 1.128,2.612 0.736,0.709 1.622,1.055 2.658,1.039 0.594,-0.01 1.143,-0.152 1.649,-0.426 l 2.441,-1.305 z" id="path4596" fill="#bbd3dc" fill-opacity="1" fill-rule="nonzero" stroke="none"></path></g><g id="g4598" transform="translate(1755.3092,709.31603)"><path d="M 0,0 1.198,2.723 6.855,0.218 C 7.018,0.143 7.163,0.101 7.293,0.091 7.573,0.07 7.822,0.156 8.041,0.349 8.259,0.542 8.379,0.781 8.399,1.066 8.421,1.352 8.337,1.603 8.146,1.818 7.956,2.033 7.716,2.151 7.425,2.173 7.134,2.195 6.88,2.113 6.662,1.928 6.444,1.744 6.325,1.508 6.304,1.223 6.299,1.155 6.302,1.053 6.313,0.917 L 3.354,2.414 C 3.913,3.479 4.521,4.232 5.179,4.671 5.835,5.111 6.623,5.296 7.543,5.228 8.695,5.142 9.638,4.676 10.368,3.83 11.1,2.984 11.422,1.99 11.337,0.848 11.257,-0.233 10.79,-1.147 9.938,-1.896 9.086,-2.645 8.13,-2.979 7.07,-2.9 6.582,-2.864 5.827,-2.617 4.807,-2.16 Z" id="path4600" fill="#bbd3dc" fill-opacity="1" fill-rule="nonzero" stroke="none"></path></g><g id="g4602" transform="translate(1757.2321,723.46353)"><path d="m 0,0 3.03,-0.446 -0.382,-2.597 0.458,-0.21 c 0.414,0.908 0.911,1.551 1.493,1.928 0.793,0.521 1.678,0.709 2.657,0.565 1.036,-0.153 1.84,-0.659 2.41,-1.52 0.571,-0.86 0.772,-1.867 0.602,-3.022 -0.115,-0.778 -0.431,-1.515 -0.95,-2.213 l -2.597,0.382 c 0.383,0.56 0.607,1.069 0.675,1.528 0.07,0.474 0.017,0.864 -0.16,1.172 C 7.061,-4.125 6.787,-3.944 6.417,-3.89 5.999,-3.829 5.615,-3.989 5.264,-4.372 4.913,-4.754 4.691,-5.258 4.6,-5.881 4.564,-6.118 4.563,-6.439 4.592,-6.843 L -0.721,-4.9 Z" id="path4604" fill="#bbd3dc" fill-opacity="1" fill-rule="nonzero" stroke="none"></path></g><g id="g4606" transform="translate(1757.8815,728.47033)"><path d="m 0,0 1.575,2.524 5.241,-3.29 c 0.15,-0.097 0.288,-0.16 0.414,-0.188 0.275,-0.061 0.535,-0.011 0.778,0.148 0.243,0.16 0.395,0.379 0.458,0.659 0.061,0.279 0.013,0.54 -0.144,0.78 C 8.165,0.873 7.944,1.025 7.659,1.088 7.374,1.151 7.111,1.106 6.869,0.955 6.628,0.803 6.476,0.587 6.414,0.308 6.399,0.241 6.388,0.14 6.379,0.003 L 3.664,1.909 C 4.371,2.883 5.081,3.541 5.794,3.882 6.507,4.223 7.313,4.293 8.213,4.094 9.342,3.844 10.208,3.248 10.81,2.306 11.412,1.364 11.589,0.334 11.341,-0.784 11.106,-1.842 10.515,-2.681 9.563,-3.299 8.613,-3.918 7.619,-4.113 6.582,-3.883 6.104,-3.777 5.393,-3.424 4.447,-2.826 Z" id="path4608" fill="#bbd3dc" fill-opacity="1" fill-rule="nonzero" stroke="none"></path></g><g id="g4610" transform="translate(1768.0759,738.42933)"><path d="M 0,0 0.724,2.809 C 1.778,2.407 2.544,1.741 3.022,0.811 3.5,-0.12 3.584,-1.104 3.274,-2.143 2.946,-3.241 2.288,-4.054 1.299,-4.582 0.31,-5.11 -0.738,-5.209 -1.847,-4.879 c -1.052,0.315 -1.84,0.965 -2.361,1.952 -0.521,0.987 -0.621,2.014 -0.303,3.082 0.279,0.934 0.819,1.669 1.62,2.207 0.802,0.538 1.686,0.759 2.652,0.661 L -0.981,0.154 c -0.392,-0.149 -0.645,-0.411 -0.756,-0.785 -0.095,-0.32 -0.069,-0.613 0.08,-0.88 0.148,-0.267 0.383,-0.448 0.702,-0.544 0.324,-0.096 0.629,-0.069 0.913,0.082 0.284,0.152 0.475,0.39 0.571,0.714 C 0.671,-0.785 0.494,-0.365 0,0" id="path4612" fill="#bbd3dc" fill-opacity="1" fill-rule="nonzero" stroke="none"></path></g><g id="g4614" transform="translate(1763.1354,746.93963)"><path d="m 0,0 1.921,2.272 4.715,-4.006 c 0.134,-0.118 0.261,-0.2 0.384,-0.245 0.262,-0.1 0.526,-0.088 0.79,0.035 0.263,0.123 0.446,0.318 0.547,0.586 0.102,0.268 0.091,0.532 -0.03,0.793 -0.121,0.26 -0.318,0.441 -0.591,0.544 C 7.463,0.083 7.196,0.077 6.936,-0.039 6.674,-0.155 6.493,-0.346 6.392,-0.614 6.368,-0.678 6.342,-0.776 6.313,-0.91 L 3.899,1.365 C 4.738,2.228 5.535,2.777 6.29,3.012 7.044,3.247 7.853,3.202 8.715,2.875 9.796,2.466 10.567,1.752 11.028,0.734 11.49,-0.284 11.518,-1.329 11.112,-2.4 10.729,-3.414 10.022,-4.159 8.992,-4.635 7.963,-5.111 6.951,-5.161 5.958,-4.785 5.5,-4.612 4.846,-4.162 3.997,-3.434 Z" id="path4616" fill="#bbd3dc" fill-opacity="1" fill-rule="nonzero" stroke="none"></path></g><g id="g4618" transform="translate(1769.2917,760.60363)"><path d="m 0,0 8.37,-7.3 -1.364,-2.941 -5.881,5.387 -1.373,-2.962 -2.778,1.288 z" id="path4620" fill="#bbd3dc" fill-opacity="1" fill-rule="nonzero" stroke="none"></path></g><g id="g4622" transform="translate(1771.0456,764.59193)"><path d="m 0,0 2.228,1.972 4.089,-4.643 c 0.116,-0.136 0.231,-0.235 0.344,-0.298 0.246,-0.136 0.509,-0.162 0.787,-0.079 0.28,0.084 0.488,0.251 0.627,0.502 0.139,0.25 0.167,0.513 0.084,0.788 -0.083,0.275 -0.252,0.484 -0.507,0.625 -0.255,0.141 -0.52,0.174 -0.795,0.097 C 6.582,-1.113 6.376,-1.277 6.236,-1.527 6.204,-1.587 6.164,-1.681 6.116,-1.809 L 4.056,0.79 C 5.01,1.523 5.877,1.952 6.657,2.076 7.438,2.2 8.231,2.039 9.038,1.592 10.049,1.031 10.71,0.214 11.02,-0.86 11.329,-1.934 11.206,-2.972 10.65,-3.974 10.126,-4.922 9.319,-5.557 8.232,-5.88 7.145,-6.204 6.137,-6.108 5.207,-5.593 c -0.428,0.238 -1.01,0.778 -1.746,1.62 z" id="path4624" fill="#bbd3dc" fill-opacity="1" fill-rule="nonzero" stroke="none"></path></g><g id="g4626" transform="translate(1942.8757,768.12563)"><path d="m 0,0 1.916,-2.276 -4.745,-3.972 c -0.138,-0.112 -0.24,-0.224 -0.306,-0.336 -0.142,-0.243 -0.176,-0.504 -0.099,-0.785 0.077,-0.281 0.239,-0.494 0.486,-0.639 0.246,-0.145 0.509,-0.18 0.786,-0.104 0.276,0.076 0.489,0.239 0.637,0.491 0.148,0.251 0.186,0.516 0.117,0.792 -0.07,0.277 -0.229,0.488 -0.476,0.633 -0.058,0.034 -0.151,0.077 -0.278,0.127 l 2.65,1.996 c 0.708,-0.973 1.116,-1.851 1.22,-2.634 0.105,-0.784 -0.077,-1.573 -0.544,-2.367 -0.586,-0.997 -1.42,-1.637 -2.501,-1.92 -1.081,-0.283 -2.116,-0.134 -3.103,0.447 -0.935,0.548 -1.55,1.371 -1.845,2.466 -0.296,1.095 -0.175,2.101 0.363,3.017 0.248,0.421 0.803,0.99 1.663,1.704 z" id="path4628" fill="#bbd3dc" fill-opacity="1" fill-rule="nonzero" stroke="none"></path></g><g id="g4630" transform="translate(1950.0046,754.63783)"><path d="M 0,0 2.403,-1.624 C 1.672,-2.482 0.787,-2.98 -0.25,-3.119 c -1.037,-0.137 -1.992,0.114 -2.866,0.753 -0.925,0.678 -1.47,1.571 -1.636,2.679 -0.166,1.11 0.093,2.131 0.775,3.063 0.65,0.887 1.527,1.41 2.631,1.57 C -0.241,5.105 0.761,4.856 1.66,4.198 2.445,3.622 2.957,2.867 3.195,1.931 3.434,0.995 3.344,0.088 2.928,-0.788 L 0.475,0.873 C 0.466,1.292 0.304,1.618 -0.012,1.849 -0.28,2.045 -0.565,2.119 -0.867,2.068 -1.169,2.018 -1.418,1.858 -1.615,1.589 -1.815,1.316 -1.892,1.021 -1.844,0.702 -1.797,0.383 -1.637,0.124 -1.363,-0.077 -0.964,-0.369 -0.51,-0.343 0,0" id="path4632" fill="#bbd3dc" fill-opacity="1" fill-rule="nonzero" stroke="none"></path></g><g id="g4634" transform="translate(1964.3835,751.75063)"><path d="m 0,0 -9.439,-5.852 -2.41,2.169 6.879,4.036 -2.426,2.184 2.048,2.276 z" id="path4636" fill="#bbd3dc" fill-opacity="1" fill-rule="nonzero" stroke="none"></path></g><g id="g4638" transform="translate(1962.4684,737.80823)"><path d="M 0,0 -1.149,2.744 4.563,5.122 C 4.725,5.191 4.855,5.271 4.956,5.363 5.164,5.552 5.273,5.792 5.284,6.082 5.295,6.373 5.203,6.625 5.011,6.836 4.818,7.049 4.578,7.16 4.291,7.17 4.004,7.18 3.753,7.087 3.537,6.892 3.317,6.692 3.199,6.45 3.184,6.165 3.168,5.88 3.258,5.629 3.454,5.413 3.496,5.367 3.57,5.301 3.677,5.214 L 0.559,4.094 C 0.172,5.241 0.044,6.203 0.176,6.98 0.308,7.757 0.717,8.457 1.403,9.08 2.255,9.854 3.24,10.214 4.356,10.162 5.473,10.109 6.416,9.659 7.187,8.811 7.914,8.008 8.256,7.041 8.212,5.907 8.168,4.773 7.753,3.85 6.967,3.136 6.6,2.803 5.901,2.426 4.871,2.004 Z" id="path4640" fill="#bbd3dc" fill-opacity="1" fill-rule="nonzero" stroke="none"></path></g><g id="g4642" transform="translate(1975.6188,739.54943)"><path d="m 0,0 0.867,-2.846 -5.924,-1.788 c -0.171,-0.049 -0.308,-0.112 -0.414,-0.189 -0.225,-0.167 -0.359,-0.395 -0.398,-0.683 -0.04,-0.288 0.025,-0.548 0.195,-0.778 0.17,-0.231 0.398,-0.365 0.682,-0.405 0.285,-0.039 0.545,0.028 0.779,0.201 0.234,0.174 0.374,0.401 0.419,0.683 0.044,0.282 -0.019,0.538 -0.188,0.769 -0.041,0.054 -0.11,0.13 -0.206,0.226 l 3.219,0.794 c 0.271,-1.173 0.3,-2.14 0.088,-2.901 -0.212,-0.762 -0.688,-1.416 -1.43,-1.964 -0.93,-0.686 -1.948,-0.947 -3.054,-0.782 -1.106,0.164 -1.998,0.708 -2.679,1.63 -0.643,0.871 -0.886,1.869 -0.727,2.992 0.158,1.124 0.665,2 1.519,2.631 0.395,0.291 1.127,0.596 2.199,0.915 z" id="path4644" fill="#bbd3dc" fill-opacity="1" fill-rule="nonzero" stroke="none"></path></g><g id="g4646" transform="translate(1982.9938,727.89813)"><path d="m 0,0 1.485,-2.516 -5.59,-3.3 c -1.028,-0.606 -2.024,-0.831 -2.987,-0.674 -0.555,0.09 -1.084,0.309 -1.585,0.657 -0.502,0.348 -0.901,0.773 -1.197,1.275 -0.591,1.001 -0.752,2.042 -0.484,3.126 0.268,1.083 0.89,1.913 1.869,2.491 0.946,0.558 1.966,0.7 3.058,0.426 1.094,-0.274 1.915,-0.878 2.466,-1.811 0.088,-0.148 0.206,-0.38 0.357,-0.696 L -5.38,-2.658 c 0.04,0.302 -0.002,0.555 -0.123,0.762 -0.153,0.26 -0.381,0.427 -0.682,0.5 -0.299,0.074 -0.585,0.032 -0.853,-0.127 -0.261,-0.154 -0.427,-0.382 -0.499,-0.685 -0.072,-0.302 -0.029,-0.588 0.13,-0.857 0.381,-0.646 1.017,-0.706 1.91,-0.179 z" id="path4648" fill="#bbd3dc" fill-opacity="1" fill-rule="nonzero" stroke="none"></path></g><g id="g4650" transform="translate(1989.0895,715.72623)"><path d="m 0,0 -10.985,-1.63 -1.353,2.946 7.915,0.977 -1.362,2.969 2.784,1.277 z" id="path4652" fill="#bbd3dc" fill-opacity="1" fill-rule="nonzero" stroke="none"></path></g><g id="g4654" transform="translate(1988.0534,708.40543)"><path d="m 0,0 -3.402,-1.157 c -0.617,-0.21 -0.844,-0.553 -0.681,-1.032 0.164,-0.483 0.555,-0.62 1.171,-0.411 l 3.402,1.158 c 0.616,0.21 0.843,0.556 0.678,1.039 C 1.006,0.075 0.616,0.209 0,0 M -3.789,1.921 -1.57,2.676 C -0.278,3.115 0.852,3.141 1.82,2.752 2.788,2.364 3.461,1.615 3.839,0.505 4.216,-0.604 4.14,-1.609 3.609,-2.51 3.08,-3.411 2.169,-4.081 0.877,-4.521 l -2.219,-0.754 c -1.292,-0.44 -2.424,-0.464 -3.395,-0.074 -0.972,0.39 -1.646,1.14 -2.024,2.249 -0.377,1.11 -0.3,2.114 0.234,3.014 0.533,0.899 1.446,1.568 2.738,2.007" id="path4656" fill="#bbd3dc" fill-opacity="1" fill-rule="nonzero" stroke="none"></path></g><g id="g4658" transform="translate(1994.5592,700.00743)"><path d="m 0,0 -0.34,-2.956 -6.145,0.724 c -0.177,0.024 -0.328,0.021 -0.455,-0.008 -0.274,-0.063 -0.487,-0.218 -0.638,-0.467 -0.152,-0.248 -0.195,-0.512 -0.132,-0.791 0.064,-0.279 0.219,-0.494 0.464,-0.643 0.245,-0.15 0.511,-0.192 0.795,-0.127 0.284,0.065 0.503,0.218 0.656,0.459 0.153,0.241 0.197,0.501 0.134,0.78 -0.016,0.066 -0.048,0.163 -0.099,0.29 l 3.27,-0.557 c -0.221,-1.183 -0.58,-2.081 -1.077,-2.695 -0.498,-0.614 -1.197,-1.024 -2.095,-1.23 -1.127,-0.258 -2.165,-0.091 -3.112,0.501 -0.949,0.592 -1.55,1.447 -1.807,2.564 -0.241,1.056 -0.066,2.067 0.527,3.034 0.593,0.967 1.408,1.569 2.444,1.807 0.477,0.108 1.27,0.096 2.381,-0.04 z" id="path4660" fill="#bbd3dc" fill-opacity="1" fill-rule="nonzero" stroke="none"></path></g><g id="g4662" transform="translate(1985.8493,684.45473)"><path d="M 0,0 0.641,2.905 6.68,1.56 C 6.852,1.523 7.006,1.513 7.14,1.53 7.419,1.564 7.646,1.698 7.822,1.929 7.998,2.161 8.068,2.419 8.033,2.704 7.998,2.988 7.866,3.217 7.638,3.391 7.408,3.564 7.149,3.633 6.86,3.597 6.565,3.561 6.33,3.431 6.152,3.207 5.976,2.982 5.905,2.726 5.941,2.437 5.949,2.375 5.972,2.277 6.009,2.146 L 2.813,3.025 c 0.345,1.161 0.794,2.02 1.35,2.58 0.555,0.56 1.293,0.896 2.213,1.01 C 7.519,6.757 8.53,6.485 9.413,5.799 10.296,5.113 10.808,4.202 10.949,3.064 11.082,1.99 10.804,1.001 10.115,0.1 9.427,-0.801 8.556,-1.317 7.501,-1.448 7.01,-1.509 6.222,-1.415 5.136,-1.167 Z" id="path4664" fill="#bbd3dc" fill-opacity="1" fill-rule="nonzero" stroke="none"></path></g><g id="g4666" transform="translate(1997.6022,678.28143)"><path d="m 0,0 -0.93,-2.826 -5.873,1.949 c -0.168,0.058 -0.317,0.086 -0.447,0.083 -0.281,-0.006 -0.521,-0.116 -0.72,-0.329 -0.198,-0.212 -0.294,-0.461 -0.288,-0.748 0.007,-0.286 0.114,-0.527 0.325,-0.724 0.21,-0.196 0.461,-0.29 0.752,-0.284 0.292,0.007 0.537,0.112 0.736,0.317 0.199,0.206 0.295,0.451 0.289,0.737 -0.002,0.068 -0.015,0.17 -0.038,0.304 l 3.09,-1.205 c -0.456,-1.114 -0.988,-1.922 -1.599,-2.422 -0.612,-0.501 -1.379,-0.762 -2.3,-0.782 -1.156,-0.026 -2.139,0.347 -2.947,1.118 -0.81,0.771 -1.227,1.73 -1.252,2.875 -0.025,1.083 0.351,2.039 1.128,2.866 0.776,0.827 1.695,1.253 2.758,1.277 0.489,0.01 1.264,-0.163 2.324,-0.519 z" id="path4668" fill="#bbd3dc" fill-opacity="1" fill-rule="nonzero" stroke="none"></path></g><g id="g4670" transform="translate(1996.9069,664.15103)"><path d="m 0,0 -10.632,0.83 0.236,3.014 10.631,-0.83 z" id="path4672" fill="#bbd3dc" fill-opacity="1" fill-rule="nonzero" stroke="none"></path></g><g id="g4674" transform="translate(1996.2331,656.43573)"><path d="m 0,0 -1.478,-2.583 -5.363,3.086 c -0.153,0.091 -0.294,0.148 -0.422,0.172 -0.276,0.05 -0.533,-0.009 -0.77,-0.178 -0.238,-0.169 -0.381,-0.394 -0.432,-0.676 -0.052,-0.282 0.006,-0.54 0.173,-0.774 0.166,-0.234 0.394,-0.377 0.681,-0.429 0.286,-0.052 0.548,0.003 0.783,0.163 0.236,0.161 0.38,0.383 0.431,0.665 0.011,0.066 0.019,0.168 0.023,0.305 l 2.786,-1.8 c -0.669,-1 -1.352,-1.685 -2.052,-2.053 -0.699,-0.368 -1.503,-0.47 -2.41,-0.305 -1.138,0.206 -2.025,0.768 -2.663,1.686 -0.639,0.918 -0.854,1.94 -0.65,3.068 0.193,1.066 0.753,1.926 1.679,2.581 0.926,0.655 1.912,0.888 2.957,0.698 0.482,-0.087 1.206,-0.412 2.174,-0.974 z" id="path4676" fill="#bbd3dc" fill-opacity="1" fill-rule="nonzero" stroke="none"></path></g><g id="g4678" transform="translate(1992.0182,640.36243)"><path d="m 0,0 -10.242,2.969 0.835,2.882 7.818,-2.267 -2.166,2.011 -0.183,-0.631 -2.228,0.646 1.159,4 6.31,-5.115 z" id="path4680" fill="#bbd3dc" fill-opacity="1" fill-rule="nonzero" stroke="none"></path></g><g id="g4682" transform="translate(1990.4626,635.26383)"><path d="m 0,0 -1.971,-2.228 -4.624,4.112 c -0.131,0.121 -0.257,0.205 -0.377,0.254 -0.26,0.106 -0.524,0.1 -0.791,-0.017 -0.266,-0.117 -0.453,-0.308 -0.56,-0.574 -0.108,-0.265 -0.104,-0.529 0.011,-0.793 0.116,-0.262 0.309,-0.449 0.58,-0.558 0.27,-0.11 0.537,-0.109 0.8,0 0.264,0.11 0.449,0.298 0.556,0.563 0.025,0.063 0.055,0.161 0.086,0.294 l 2.361,-2.328 c -0.858,-0.845 -1.667,-1.375 -2.426,-1.594 -0.76,-0.217 -1.568,-0.153 -2.422,0.192 -1.072,0.434 -1.827,1.165 -2.265,2.193 -0.437,1.028 -0.441,2.074 -0.012,3.136 0.407,1.004 1.129,1.733 2.169,2.186 1.04,0.453 2.053,0.48 3.038,0.081 0.453,-0.183 1.097,-0.648 1.93,-1.396 z" id="path4684" fill="#bbd3dc" fill-opacity="1" fill-rule="nonzero" stroke="none"></path></g><g id="g4686" transform="translate(1983.5505,621.29753)"><path d="m 0,0 -2.707,1.433 1.228,2.32 -0.362,0.351 C -2.533,3.386 -3.217,2.946 -3.892,2.785 -4.813,2.559 -5.711,2.678 -6.585,3.141 -7.511,3.63 -8.099,4.376 -8.349,5.378 -8.6,6.38 -8.452,7.396 -7.906,8.428 c 0.368,0.695 0.913,1.284 1.635,1.768 l 2.32,-1.228 C -4.499,8.569 -4.881,8.164 -5.098,7.754 -5.322,7.331 -5.402,6.945 -5.34,6.596 -5.276,6.248 -5.079,5.986 -4.748,5.81 -4.375,5.613 -3.959,5.636 -3.5,5.879 c 0.458,0.244 0.835,0.643 1.13,1.201 0.112,0.212 0.222,0.513 0.329,0.904 L 2.316,4.378 Z" id="path4688" fill="#bbd3dc" fill-opacity="1" fill-rule="nonzero" stroke="none"></path></g><g id="g4690" transform="translate(1940.3024,795.64513)"><path d="m 0,0 2.097,-2.11 -4.401,-4.35 c -0.129,-0.123 -0.22,-0.244 -0.277,-0.361 -0.122,-0.253 -0.134,-0.517 -0.033,-0.79 0.098,-0.273 0.278,-0.472 0.536,-0.597 0.258,-0.124 0.522,-0.137 0.792,-0.039 0.269,0.099 0.468,0.28 0.595,0.542 0.126,0.263 0.143,0.53 0.05,0.8 -0.092,0.27 -0.267,0.467 -0.526,0.591 -0.061,0.029 -0.156,0.064 -0.288,0.104 l 2.476,2.207 C 1.808,-4.914 2.286,-5.755 2.455,-6.527 2.624,-7.299 2.508,-8.1 2.108,-8.931 1.606,-9.973 0.829,-10.679 -0.226,-11.05 c -1.054,-0.371 -2.097,-0.308 -3.129,0.189 -0.977,0.469 -1.658,1.238 -2.042,2.305 -0.386,1.067 -0.348,2.079 0.113,3.036 0.212,0.441 0.718,1.054 1.516,1.836 z" id="path4692" fill="#bbd3dc" fill-opacity="1" fill-rule="nonzero" stroke="none"></path></g><g id="g4694" transform="translate(1951.0544,789.60513)"><path d="M 0,0 2.523,-1.474 -0.752,-7.08 c -0.602,-1.029 -1.362,-1.71 -2.28,-2.043 -0.529,-0.191 -1.097,-0.257 -1.704,-0.198 -0.608,0.06 -1.163,0.237 -1.667,0.531 -1.003,0.586 -1.652,1.417 -1.946,2.494 -0.293,1.076 -0.154,2.105 0.419,3.085 0.555,0.949 1.376,1.57 2.464,1.863 1.088,0.293 2.1,0.166 3.035,-0.381 0.149,-0.086 0.366,-0.231 0.652,-0.434 l -1.624,-2.779 c -0.113,0.283 -0.273,0.484 -0.479,0.606 -0.261,0.152 -0.541,0.187 -0.839,0.105 C -5.02,-4.313 -5.247,-4.489 -5.404,-4.759 -5.558,-5.02 -5.591,-5.3 -5.507,-5.6 c 0.084,-0.299 0.262,-0.528 0.531,-0.686 0.648,-0.378 1.233,-0.12 1.756,0.775 z" id="path4696" fill="#bbd3dc" fill-opacity="1" fill-rule="nonzero" stroke="none"></path></g><g id="g4698" transform="translate(1957.0407,786.18183)"><path d="m 0,0 1.733,-2.418 -5.038,-3.593 c -0.146,-0.101 -0.257,-0.204 -0.331,-0.311 -0.161,-0.231 -0.215,-0.489 -0.159,-0.775 0.055,-0.286 0.199,-0.51 0.435,-0.674 0.234,-0.164 0.493,-0.219 0.775,-0.165 0.282,0.054 0.507,0.201 0.674,0.44 0.166,0.239 0.225,0.5 0.177,0.781 -0.048,0.281 -0.19,0.504 -0.425,0.668 -0.056,0.038 -0.145,0.088 -0.268,0.148 l 2.796,1.784 c 0.632,-1.024 0.97,-1.931 1.013,-2.72 0.044,-0.789 -0.198,-1.562 -0.725,-2.318 -0.661,-0.949 -1.542,-1.522 -2.642,-1.72 -1.1,-0.198 -2.12,0.03 -3.06,0.685 -0.889,0.62 -1.438,1.487 -1.648,2.602 -0.21,1.114 -0.012,2.107 0.595,2.979 0.281,0.402 0.877,0.925 1.791,1.571 z" id="path4700" fill="#bbd3dc" fill-opacity="1" fill-rule="nonzero" stroke="none"></path></g><g id="g4702" transform="translate(1967.0046,778.25263)"><path d="m 0,0 -6.77,-8.24 -2.335,1.919 6.768,8.24 z" id="path4704" fill="#bbd3dc" fill-opacity="1" fill-rule="nonzero" stroke="none"></path></g><g id="g4706" transform="translate(1975.5134,770.41173)"><path d="m 0,0 -9.631,-5.531 -2.336,2.248 7.012,3.802 -2.353,2.265 2.124,2.206 z" id="path4708" fill="#bbd3dc" fill-opacity="1" fill-rule="nonzero" stroke="none"></path></g><g id="g4710" transform="translate(1982.0895,763.13733)"><path d="m 0,0 -7.977,-7.078 -1.991,2.244 6.089,5.403 -2.856,-0.759 0.435,-0.491 -1.735,-1.54 -2.764,3.115 7.693,2.606 z" id="path4712" fill="#bbd3dc" fill-opacity="1" fill-rule="nonzero" stroke="none"></path></g><g id="g4714" transform="translate(1984.738,760.25793)"><path d="M 0,0 0.898,-2.836 -5.005,-4.69 c -0.171,-0.051 -0.308,-0.115 -0.412,-0.194 -0.225,-0.169 -0.355,-0.398 -0.392,-0.687 -0.036,-0.288 0.032,-0.547 0.205,-0.776 0.172,-0.228 0.401,-0.361 0.686,-0.397 0.285,-0.036 0.544,0.034 0.776,0.21 0.234,0.176 0.371,0.405 0.412,0.687 0.041,0.283 -0.025,0.538 -0.198,0.767 -0.04,0.054 -0.11,0.128 -0.208,0.224 l 3.211,0.83 c 0.283,-1.17 0.323,-2.137 0.12,-2.901 -0.203,-0.763 -0.673,-1.423 -1.408,-1.979 -0.923,-0.697 -1.938,-0.969 -3.045,-0.816 -1.107,0.152 -2.007,0.686 -2.697,1.6 -0.652,0.865 -0.906,1.859 -0.761,2.984 0.146,1.125 0.643,2.008 1.491,2.648 0.391,0.295 1.121,0.608 2.189,0.939 z" id="path4716" fill="#bbd3dc" fill-opacity="1" fill-rule="nonzero" stroke="none"></path></g><g id="g4718" transform="translate(1982.5964,743.57043)"><path d="M 0,0 -0.672,2.898 5.359,4.281 C 5.531,4.322 5.674,4.379 5.788,4.452 6.025,4.603 6.173,4.821 6.232,5.106 6.292,5.391 6.244,5.654 6.09,5.896 5.937,6.137 5.719,6.287 5.438,6.346 5.155,6.404 4.893,6.354 4.646,6.198 4.396,6.038 4.239,5.819 4.176,5.541 4.112,5.263 4.159,5 4.316,4.754 4.35,4.702 4.411,4.624 4.502,4.521 L 1.239,3.941 C 1.051,5.137 1.087,6.106 1.348,6.851 1.608,7.595 2.13,8.216 2.911,8.714 3.882,9.333 4.913,9.523 6.005,9.284 7.097,9.044 7.95,8.441 8.566,7.476 9.149,6.562 9.323,5.55 9.09,4.44 8.855,3.331 8.291,2.49 7.395,1.918 6.978,1.652 6.226,1.398 5.139,1.156 Z" id="path4720" fill="#bbd3dc" fill-opacity="1" fill-rule="nonzero" stroke="none"></path></g><g id="g4722" transform="translate(1995.1969,744.35953)"><path d="m 0,0 0.44,-2.942 -6.122,-0.901 c -0.176,-0.023 -0.322,-0.065 -0.437,-0.126 -0.248,-0.132 -0.413,-0.338 -0.494,-0.617 -0.082,-0.279 -0.056,-0.545 0.079,-0.798 0.134,-0.253 0.339,-0.42 0.615,-0.5 0.275,-0.081 0.542,-0.053 0.8,0.084 0.258,0.137 0.429,0.342 0.515,0.614 0.084,0.272 0.06,0.535 -0.075,0.788 -0.032,0.06 -0.089,0.145 -0.171,0.254 l 3.302,0.313 c 0.096,-1.199 -0.017,-2.16 -0.339,-2.882 -0.32,-0.723 -0.887,-1.3 -1.702,-1.733 -1.021,-0.542 -2.066,-0.651 -3.136,-0.326 -1.069,0.325 -1.873,0.994 -2.41,2.005 -0.509,0.957 -0.602,1.979 -0.281,3.067 0.321,1.088 0.951,1.882 1.89,2.38 0.431,0.23 1.202,0.424 2.309,0.582 z" id="path4724" fill="#bbd3dc" fill-opacity="1" fill-rule="nonzero" stroke="none"></path></g><g id="g4726" transform="translate(1998.7204,736.73743)"><path d="M 0,0 2.246,-5.183 -2.21,-5.215 c -0.139,-0.742 -0.382,-1.342 -0.73,-1.803 -0.348,-0.46 -0.837,-0.827 -1.468,-1.1 -0.943,-0.408 -1.887,-0.406 -2.834,0.006 -0.948,0.413 -1.642,1.126 -2.081,2.138 -0.242,0.56 -0.377,1.16 -0.406,1.8 l 2.768,1.199 c -0.078,-0.527 -0.051,-0.944 0.082,-1.25 0.145,-0.334 0.386,-0.563 0.723,-0.687 0.338,-0.123 0.683,-0.108 1.037,0.045 0.406,0.176 0.656,0.486 0.751,0.93 0.094,0.444 0.017,0.95 -0.229,1.519 l 2.243,0.111 -0.47,1.083 z" id="path4728" fill="#bbd3dc" fill-opacity="1" fill-rule="nonzero" stroke="none"></path></g><g id="g4730" transform="translate(2003.027,726.97083)"><path d="m 0,0 -0.033,-2.975 -6.187,0.084 c -0.177,0.005 -0.328,-0.013 -0.452,-0.055 -0.266,-0.092 -0.461,-0.268 -0.586,-0.531 -0.125,-0.263 -0.141,-0.53 -0.049,-0.801 0.093,-0.271 0.269,-0.468 0.529,-0.592 0.258,-0.123 0.527,-0.137 0.802,-0.043 0.277,0.094 0.479,0.269 0.606,0.524 0.128,0.256 0.144,0.519 0.053,0.79 -0.023,0.064 -0.066,0.157 -0.128,0.279 l 3.309,-0.216 c -0.096,-1.2 -0.361,-2.131 -0.793,-2.793 -0.431,-0.662 -1.084,-1.142 -1.956,-1.44 -1.094,-0.373 -2.143,-0.314 -3.147,0.177 -1.004,0.49 -1.692,1.278 -2.062,2.363 -0.35,1.025 -0.28,2.049 0.21,3.072 0.489,1.023 1.238,1.706 2.243,2.05 0.463,0.158 1.254,0.227 2.373,0.207 z" id="path4732" fill="#bbd3dc" fill-opacity="1" fill-rule="nonzero" stroke="none"></path></g><g id="g4734" transform="translate(2006.361,714.69103)"><path d="M 0,0 -10.334,-2.631 -11.08,0.299 -0.746,2.93 Z" id="path4736" fill="#bbd3dc" fill-opacity="1" fill-rule="nonzero" stroke="none"></path></g><g id="g4738" transform="translate(2001.1305,701.87123)"><path d="M 0,0 -3.041,-0.521 -4.205,6.271 2.703,3.982 2.938,3.904 C 3.123,3.84 3.298,3.823 3.462,3.851 3.878,3.922 4.044,4.202 3.961,4.689 3.928,4.879 3.829,5.033 3.664,5.15 3.498,5.267 3.32,5.309 3.131,5.276 2.915,5.239 2.736,5.114 2.593,4.899 L -0.04,5.835 C 0.212,6.459 0.582,6.969 1.069,7.364 1.556,7.76 2.126,8.013 2.777,8.125 3.789,8.298 4.716,8.09 5.56,7.5 6.403,6.91 6.912,6.109 7.085,5.098 7.259,4.082 7.051,3.157 6.459,2.323 5.867,1.49 5.061,0.986 4.039,0.811 3.453,0.71 2.887,0.748 2.339,0.924 l -2.64,0.832 z" id="path4740" fill="#bbd3dc" fill-opacity="1" fill-rule="nonzero" stroke="none"></path></g><g id="g4742" transform="translate(2009.2946,696.34393)"><path d="m 0,0 0.262,-2.91 -6.466,-0.582 c -1.189,-0.107 -2.184,0.117 -2.987,0.673 -0.462,0.319 -0.846,0.743 -1.15,1.273 -0.304,0.529 -0.482,1.085 -0.534,1.666 -0.104,1.156 0.197,2.167 0.903,3.03 0.707,0.864 1.626,1.347 2.757,1.449 1.094,0.098 2.076,-0.211 2.946,-0.928 0.871,-0.716 1.354,-1.614 1.451,-2.693 0.015,-0.171 0.023,-0.432 0.023,-0.782 l -3.206,-0.289 c 0.166,0.256 0.237,0.503 0.216,0.741 -0.028,0.301 -0.16,0.549 -0.401,0.745 C -6.425,1.588 -6.701,1.672 -7.012,1.644 -7.313,1.617 -7.561,1.482 -7.756,1.24 -7.951,0.997 -8.035,0.72 -8.007,0.409 c 0.068,-0.747 0.617,-1.074 1.65,-0.981 z" id="path4744" fill="#bbd3dc" fill-opacity="1" fill-rule="nonzero" stroke="none"></path></g><g id="g4746" transform="translate(2009.9684,689.55283)"><path d="m 0,0 -0.947,-2.82 -5.861,1.983 c -0.168,0.06 -0.317,0.088 -0.447,0.087 -0.281,-0.005 -0.521,-0.113 -0.722,-0.325 -0.199,-0.211 -0.296,-0.46 -0.292,-0.747 0.005,-0.286 0.112,-0.528 0.321,-0.725 0.209,-0.197 0.459,-0.293 0.751,-0.289 0.291,0.005 0.537,0.109 0.737,0.313 0.199,0.204 0.297,0.449 0.293,0.735 -0.002,0.068 -0.014,0.169 -0.036,0.305 l 3.082,-1.224 c -0.461,-1.112 -0.999,-1.916 -1.613,-2.413 -0.615,-0.497 -1.383,-0.754 -2.305,-0.768 -1.155,-0.019 -2.136,0.36 -2.94,1.136 -0.805,0.776 -1.216,1.737 -1.235,2.882 -0.017,1.084 0.364,2.037 1.146,2.859 0.781,0.823 1.703,1.243 2.764,1.26 0.491,0.008 1.264,-0.169 2.323,-0.533 z" id="path4748" fill="#bbd3dc" fill-opacity="1" fill-rule="nonzero" stroke="none"></path></g><g id="g4750" transform="translate(2004.8141,678.13543)"><path d="m 0,0 -3.058,0.158 0.067,1.302 -2.996,0.155 0.15,2.918 6.608,-0.34 C 1.516,4.154 2.144,3.994 2.655,3.712 3.311,3.355 3.832,2.837 4.223,2.157 4.612,1.478 4.789,0.781 4.752,0.068 L 4.729,-0.243 1.67,-0.086 C 1.679,-0.019 1.684,0.031 1.686,0.062 1.704,0.432 1.597,0.723 1.363,0.935 1.129,1.148 0.785,1.266 0.333,1.29 L 0.067,1.303 Z" id="path4752" fill="#bbd3dc" fill-opacity="1" fill-rule="nonzero" stroke="none"></path></g><g id="g4754" transform="translate(2009.1803,762.56753)"><path d="m 0,0 -9.323,-5.176 -1.456,2.623 7.117,3.951 -2.953,-0.12 0.318,-0.574 -2.028,-1.126 -2.022,3.641 8.076,0.872 z" id="path4756" fill="#bbd3dc" fill-opacity="1" fill-rule="nonzero" stroke="none"></path></g><g id="g4758" transform="translate(2006.1872,751.21203)"><path d="M 0,0 -2.795,-1.31 -5.72,4.929 1.548,4.557 1.796,4.543 C 1.991,4.531 2.164,4.561 2.315,4.631 2.697,4.811 2.783,5.124 2.573,5.572 2.491,5.747 2.355,5.868 2.165,5.937 1.974,6.006 1.792,6 1.617,5.918 1.419,5.825 1.279,5.656 1.199,5.411 l -2.788,0.203 c 0.078,0.67 0.299,1.259 0.664,1.77 0.364,0.51 0.847,0.906 1.446,1.186 C 1.449,9.006 2.398,9.051 3.369,8.706 4.339,8.361 5.041,7.724 5.477,6.795 5.914,5.861 5.959,4.915 5.609,3.954 5.26,2.994 4.616,2.293 3.678,1.854 3.14,1.602 2.584,1.487 2.009,1.511 l -2.766,0.102 z" id="path4760" fill="#bbd3dc" fill-opacity="1" fill-rule="nonzero" stroke="none"></path></g><g id="g4762" transform="translate(2014.7389,751.08123)"><path d="M 0,0 0.088,-2.974 -6.098,-3.14 c -0.177,-0.002 -0.328,-0.027 -0.449,-0.073 -0.262,-0.102 -0.45,-0.287 -0.564,-0.554 -0.115,-0.268 -0.12,-0.535 -0.017,-0.802 0.104,-0.267 0.287,-0.457 0.552,-0.57 0.264,-0.113 0.532,-0.116 0.805,-0.011 0.271,0.105 0.465,0.288 0.583,0.548 0.117,0.261 0.124,0.524 0.02,0.791 -0.024,0.063 -0.07,0.155 -0.139,0.273 l 3.316,-0.081 c -0.048,-1.203 -0.275,-2.144 -0.679,-2.823 -0.405,-0.679 -1.037,-1.184 -1.896,-1.517 -1.079,-0.418 -2.129,-0.402 -3.153,0.048 -1.023,0.45 -1.741,1.21 -2.155,2.278 -0.392,1.01 -0.363,2.036 0.085,3.078 0.448,1.043 1.168,1.755 2.159,2.139 0.456,0.177 1.244,0.278 2.362,0.303 z" id="path4764" fill="#bbd3dc" fill-opacity="1" fill-rule="nonzero" stroke="none"></path></g><g id="g4766" transform="translate(2018.9411,737.93613)"><path d="m 0,0 -2.926,-0.907 -0.777,2.508 -0.504,-0.01 c 0.019,-0.997 -0.15,-1.791 -0.513,-2.383 -0.49,-0.812 -1.208,-1.364 -2.152,-1.657 -1,-0.31 -1.943,-0.2 -2.83,0.329 -0.887,0.53 -1.503,1.351 -1.848,2.466 -0.233,0.751 -0.266,1.553 -0.1,2.406 l 2.507,0.777 C -9.246,2.859 -9.229,2.303 -9.092,1.86 -8.95,1.403 -8.733,1.073 -8.441,0.872 -8.15,0.67 -7.825,0.625 -7.467,0.736 c 0.403,0.125 0.68,0.436 0.831,0.933 0.152,0.497 0.134,1.046 -0.052,1.648 -0.072,0.229 -0.208,0.519 -0.41,0.871 l 5.631,0.543 z" id="path4768" fill="#bbd3dc" fill-opacity="1" fill-rule="nonzero" stroke="none"></path></g><g id="g4770" transform="translate(2020.4167,733.54943)"><path d="m 0,0 -0.322,-2.958 -6.15,0.686 C -6.647,-2.25 -6.8,-2.253 -6.926,-2.283 -7.2,-2.348 -7.412,-2.504 -7.562,-2.754 c -0.15,-0.249 -0.192,-0.514 -0.126,-0.792 0.066,-0.279 0.222,-0.493 0.468,-0.641 0.246,-0.147 0.511,-0.188 0.795,-0.121 0.284,0.067 0.502,0.222 0.654,0.463 0.151,0.242 0.194,0.502 0.128,0.781 -0.015,0.066 -0.048,0.162 -0.1,0.289 l 3.273,-0.537 c -0.213,-1.184 -0.566,-2.084 -1.06,-2.702 -0.494,-0.616 -1.19,-1.03 -2.087,-1.242 -1.125,-0.265 -2.164,-0.105 -3.115,0.482 -0.953,0.586 -1.56,1.437 -1.823,2.552 -0.249,1.054 -0.079,2.067 0.508,3.037 0.587,0.971 1.399,1.578 2.433,1.822 0.475,0.112 1.269,0.104 2.381,-0.025 z" id="path4772" fill="#bbd3dc" fill-opacity="1" fill-rule="nonzero" stroke="none"></path></g><g id="g4774" transform="translate(2015.4967,720.59533)"><path d="m 0,0 0.58,-2.842 c -1.124,-0.101 -2.104,0.162 -2.941,0.79 -0.837,0.627 -1.344,1.475 -1.52,2.544 -0.186,1.131 0.049,2.15 0.707,3.058 0.657,0.908 1.557,1.456 2.698,1.644 C 0.608,5.374 1.601,5.133 2.501,4.474 3.401,3.815 3.942,2.936 4.124,1.836 4.282,0.875 4.119,-0.023 3.634,-0.858 3.148,-1.693 2.45,-2.278 1.54,-2.613 L 0.95,0.291 C 1.237,0.597 1.35,0.943 1.286,1.328 1.231,1.657 1.079,1.909 0.829,2.084 0.578,2.259 0.288,2.32 -0.041,2.266 -0.375,2.21 -0.637,2.052 -0.825,1.792 -1.015,1.531 -1.082,1.233 -1.026,0.899 -0.946,0.411 -0.604,0.111 0,0" id="path4776" fill="#bbd3dc" fill-opacity="1" fill-rule="nonzero" stroke="none"></path></g><g id="g4778" transform="translate(2023.6159,715.58603)"><path d="m 0,0 -0.72,-2.887 -6,1.512 c -0.172,0.046 -0.323,0.063 -0.452,0.051 -0.28,-0.027 -0.512,-0.154 -0.693,-0.381 -0.183,-0.226 -0.26,-0.482 -0.233,-0.767 0.028,-0.285 0.153,-0.518 0.377,-0.698 0.224,-0.18 0.481,-0.256 0.772,-0.228 0.29,0.028 0.526,0.151 0.71,0.37 0.182,0.219 0.26,0.471 0.233,0.757 -0.007,0.067 -0.026,0.167 -0.06,0.3 l 3.17,-0.975 c -0.372,-1.145 -0.844,-1.99 -1.417,-2.534 -0.573,-0.544 -1.318,-0.86 -2.236,-0.948 -1.151,-0.111 -2.158,0.189 -3.021,0.899 -0.864,0.71 -1.35,1.635 -1.459,2.775 -0.104,1.079 0.201,2.059 0.914,2.941 0.713,0.882 1.598,1.374 2.656,1.476 0.487,0.046 1.273,-0.069 2.356,-0.348 z" id="path4780" fill="#bbd3dc" fill-opacity="1" fill-rule="nonzero" stroke="none"></path></g><g id="g4782" transform="translate(2024.1344,701.11783)"><path d="m 0,0 -10.747,2.801 -0.091,3.241 7.666,-2.2 -0.092,3.264 3.062,0.086 z" id="path4784" fill="#bbd3dc" fill-opacity="1" fill-rule="nonzero" stroke="none"></path></g><g id="g4786" transform="translate(2024.362,697.21983)"><path d="m 0,0 -1.101,-2.764 -5.742,2.305 c -0.165,0.069 -0.311,0.106 -0.441,0.111 -0.281,0.011 -0.528,-0.083 -0.738,-0.283 -0.212,-0.201 -0.323,-0.444 -0.334,-0.73 -0.011,-0.286 0.082,-0.534 0.28,-0.742 0.197,-0.209 0.441,-0.318 0.733,-0.33 0.291,-0.011 0.543,0.079 0.753,0.271 0.211,0.193 0.322,0.433 0.333,0.719 0.003,0.067 -0.003,0.169 -0.018,0.305 l 3.009,-1.392 c -0.521,-1.085 -1.103,-1.858 -1.744,-2.321 -0.641,-0.462 -1.422,-0.675 -2.344,-0.639 -1.155,0.046 -2.113,0.478 -2.873,1.298 -0.759,0.819 -1.117,1.801 -1.073,2.946 0.043,1.082 0.477,2.013 1.302,2.791 0.826,0.778 1.769,1.146 2.831,1.105 0.489,-0.019 1.252,-0.239 2.288,-0.661 z" id="path4788" fill="#bbd3dc" fill-opacity="1" fill-rule="nonzero" stroke="none"></path></g><g id="g4790" transform="translate(2012.2155,685.83313)"><path d="m 0,0 1.286,2.683 5.572,-2.69 C 7.019,-0.082 7.165,-0.126 7.3,-0.141 7.579,-0.171 7.831,-0.093 8.056,0.092 8.28,0.278 8.407,0.513 8.438,0.797 8.469,1.083 8.393,1.335 8.209,1.557 8.026,1.778 7.79,1.904 7.5,1.936 7.204,1.967 6.945,1.895 6.722,1.717 6.498,1.539 6.371,1.305 6.34,1.015 6.333,0.953 6.333,0.854 6.339,0.717 L 3.43,2.303 C 4.03,3.354 4.664,4.088 5.332,4.506 6.001,4.924 6.796,5.083 7.718,4.984 8.862,4.861 9.785,4.365 10.488,3.496 11.191,2.627 11.481,1.623 11.358,0.483 11.243,-0.594 10.747,-1.492 9.87,-2.213 8.994,-2.933 8.027,-3.236 6.972,-3.123 6.479,-3.07 5.733,-2.798 4.733,-2.309 Z" id="path4792" fill="#bbd3dc" fill-opacity="1" fill-rule="nonzero" stroke="none"></path></g><g id="g4794" transform="translate(2021.3884,673.71643)"><path d="m 0,0 -9.959,4.917 0.566,3.192 7.064,-3.705 0.57,3.216 3.016,-0.536 z" id="path4796" fill="#bbd3dc" fill-opacity="1" fill-rule="nonzero" stroke="none"></path></g><g id="g4798" transform="translate(2020.7897,671.03483)"><path d="m 0,0 -1.365,-5.481 -3.559,2.683 c -0.56,-0.505 -1.119,-0.834 -1.676,-0.988 -0.556,-0.154 -1.168,-0.148 -1.835,0.018 -0.996,0.249 -1.744,0.825 -2.246,1.728 -0.503,0.903 -0.62,1.891 -0.353,2.962 0.147,0.592 0.405,1.15 0.772,1.676 L -7.336,1.869 C -7.719,1.497 -7.95,1.149 -8.03,0.826 -8.119,0.472 -8.066,0.144 -7.873,-0.159 c 0.192,-0.303 0.476,-0.501 0.85,-0.594 0.429,-0.108 0.816,-0.014 1.161,0.282 0.344,0.295 0.592,0.743 0.742,1.345 l 1.849,-1.274 0.285,1.145 z" id="path4800" fill="#bbd3dc" fill-opacity="1" fill-rule="nonzero" stroke="none"></path></g><g id="g4802" transform="translate(2018.3981,660.97623)"><path d="M 0,0 -1.808,-2.363 -6.712,1.41 c -0.14,0.111 -0.271,0.186 -0.395,0.226 -0.268,0.087 -0.53,0.062 -0.788,-0.073 -0.257,-0.136 -0.43,-0.34 -0.518,-0.612 -0.088,-0.273 -0.066,-0.536 0.068,-0.79 0.134,-0.255 0.34,-0.427 0.617,-0.516 0.278,-0.09 0.544,-0.071 0.799,0.057 0.255,0.128 0.427,0.329 0.515,0.601 0.021,0.065 0.043,0.164 0.064,0.3 l 2.522,-2.155 c -0.796,-0.903 -1.566,-1.49 -2.308,-1.762 -0.742,-0.271 -1.552,-0.265 -2.428,0.019 -1.1,0.356 -1.906,1.031 -2.415,2.026 -0.51,0.995 -0.589,2.037 -0.236,3.127 0.334,1.031 1.003,1.809 2.008,2.334 1.006,0.526 2.014,0.625 3.024,0.298 0.466,-0.151 1.141,-0.569 2.025,-1.255 z" id="path4804" fill="#bbd3dc" fill-opacity="1" fill-rule="nonzero" stroke="none"></path></g><g id="g4806" transform="translate(2015.4967,653.42593)"><path d="m 0,0 -2.106,-5.241 -3.157,3.146 c -0.624,-0.423 -1.222,-0.672 -1.795,-0.748 -0.572,-0.076 -1.176,0.014 -1.814,0.271 -0.952,0.382 -1.615,1.055 -1.988,2.019 -0.373,0.964 -0.354,1.959 0.057,2.983 0.228,0.566 0.559,1.083 0.995,1.553 L -7.01,2.859 C -7.439,2.543 -7.717,2.231 -7.841,1.922 c -0.136,-0.339 -0.13,-0.671 0.02,-0.998 0.149,-0.326 0.403,-0.561 0.76,-0.705 0.412,-0.165 0.808,-0.125 1.19,0.12 0.382,0.245 0.688,0.655 0.919,1.23 l 1.656,-1.516 0.44,1.095 z" id="path4808" fill="#bbd3dc" fill-opacity="1" fill-rule="nonzero" stroke="none"></path></g><g id="g4810" transform="translate(2011.7565,643.81313)"><path d="M 0,0 -2.115,-2.092 -6.456,2.317 C -6.578,2.446 -6.698,2.539 -6.815,2.595 -7.069,2.718 -7.332,2.729 -7.605,2.63 -7.879,2.532 -8.078,2.353 -8.203,2.095 -8.328,1.837 -8.342,1.574 -8.244,1.303 c 0.098,-0.27 0.278,-0.469 0.541,-0.595 0.263,-0.127 0.528,-0.145 0.799,-0.053 0.27,0.092 0.467,0.267 0.592,0.525 0.03,0.061 0.065,0.157 0.105,0.288 l 2.202,-2.481 c -0.913,-0.785 -1.755,-1.261 -2.527,-1.428 -0.773,-0.167 -1.573,-0.05 -2.404,0.351 -1.041,0.504 -1.745,1.283 -2.114,2.339 -0.369,1.055 -0.304,2.098 0.196,3.129 0.471,0.976 1.241,1.655 2.309,2.038 1.067,0.383 2.08,0.343 3.036,-0.12 0.441,-0.213 1.052,-0.72 1.833,-1.521 z" id="path4812" fill="#bbd3dc" fill-opacity="1" fill-rule="nonzero" stroke="none"></path></g><g id="g4814" transform="translate(2004.7067,635.31753)"><path d="M 0,0 C 0.116,0.204 0.142,0.421 0.077,0.654 0.012,0.886 -0.12,1.059 -0.319,1.173 -0.55,1.305 -0.781,1.341 -1.014,1.281 -1.245,1.222 -1.426,1.079 -1.555,0.853 -1.671,0.65 -1.694,0.431 -1.625,0.196 c 0.069,-0.235 0.209,-0.412 0.417,-0.531 0.217,-0.124 0.441,-0.153 0.674,-0.088 C -0.303,-0.358 -0.124,-0.217 0,0 m -3.464,1.954 c 0.176,0.307 0.219,0.632 0.13,0.974 C -3.424,3.27 -3.62,3.527 -3.923,3.701 -4.253,3.89 -4.588,3.94 -4.929,3.853 -5.27,3.766 -5.532,3.562 -5.716,3.241 -5.899,2.92 -5.941,2.59 -5.844,2.252 c 0.098,-0.337 0.312,-0.601 0.642,-0.79 0.298,-0.17 0.619,-0.207 0.963,-0.109 0.343,0.097 0.602,0.297 0.775,0.601 m -0.045,-3.007 c -0.618,-0.157 -1.136,-0.212 -1.553,-0.166 -0.417,0.047 -0.865,0.207 -1.344,0.481 -0.918,0.525 -1.505,1.277 -1.762,2.254 -0.258,0.978 -0.118,1.935 0.417,2.871 0.538,0.94 1.293,1.548 2.266,1.822 0.973,0.275 1.919,0.15 2.837,-0.375 0.464,-0.266 0.829,-0.574 1.09,-0.925 0.261,-0.35 0.479,-0.821 0.651,-1.411 C -0.272,3.579 0.315,3.464 0.858,3.154 1.641,2.707 2.138,2.078 2.349,1.267 2.561,0.456 2.436,-0.352 1.976,-1.156 1.511,-1.97 0.875,-2.494 0.07,-2.726 c -0.805,-0.233 -1.603,-0.123 -2.394,0.329 -0.533,0.305 -0.929,0.753 -1.185,1.344" id="path4816" fill="#bbd3dc" fill-opacity="1" fill-rule="nonzero" stroke="none"></path></g><g id="g4818" transform="translate(2002.819,627.70763)"><path d="M 0,0 -2.381,-1.784 -6.079,3.177 C -6.183,3.322 -6.289,3.43 -6.397,3.502 -6.631,3.658 -6.891,3.706 -7.175,3.645 -7.46,3.584 -7.682,3.435 -7.84,3.196 -7.999,2.958 -8.049,2.698 -7.988,2.417 -7.929,2.137 -7.777,1.915 -7.534,1.753 -7.292,1.592 -7.03,1.538 -6.75,1.592 c 0.28,0.054 0.5,0.201 0.658,0.439 0.038,0.056 0.086,0.147 0.144,0.271 l 1.842,-2.758 c -1.011,-0.653 -1.911,-1.01 -2.699,-1.07 -0.788,-0.06 -1.565,0.166 -2.332,0.677 -0.963,0.641 -1.554,1.509 -1.775,2.605 -0.222,1.096 -0.015,2.12 0.621,3.074 0.601,0.901 1.456,1.469 2.566,1.702 1.11,0.234 2.107,0.056 2.992,-0.533 0.407,-0.271 0.943,-0.857 1.607,-1.757 z" id="path4820" fill="#bbd3dc" fill-opacity="1" fill-rule="nonzero" stroke="none"></path></g><g id="g4822" transform="translate(1994.4938,616.70033)"><path d="m 0,0 -2.428,1.868 1.602,2.08 -0.298,0.407 C -1.928,3.764 -2.676,3.446 -3.367,3.4 -4.313,3.333 -5.179,3.601 -5.963,4.204 c -0.829,0.639 -1.283,1.473 -1.361,2.503 -0.078,1.029 0.238,2.006 0.95,2.931 0.479,0.623 1.115,1.112 1.908,1.468 L -2.385,9.505 C -2.992,9.204 -3.437,8.869 -3.72,8.501 -4.012,8.122 -4.156,7.755 -4.153,7.401 c 0.004,-0.355 0.154,-0.646 0.451,-0.875 0.334,-0.257 0.748,-0.304 1.241,-0.142 0.493,0.163 0.933,0.494 1.316,0.993 0.147,0.19 0.305,0.469 0.477,0.836 L 3.021,3.925 Z" id="path4824" fill="#bbd3dc" fill-opacity="1" fill-rule="nonzero" stroke="none"></path></g><g id="g4826" transform="translate(1982.2487,614.11633)"><path d="M 0,0 -2.313,2.044 2.251,7.207 4.796,0.39 4.883,0.157 C 4.949,-0.027 5.045,-0.174 5.17,-0.285 5.486,-0.564 5.808,-0.519 6.136,-0.148 6.264,-0.003 6.321,0.17 6.309,0.372 6.296,0.574 6.218,0.739 6.073,0.867 5.909,1.012 5.699,1.072 5.442,1.049 L 4.521,3.688 C 5.166,3.883 5.795,3.914 6.408,3.782 7.021,3.65 7.576,3.365 8.071,2.927 8.841,2.248 9.259,1.394 9.328,0.367 9.396,-0.66 9.092,-1.558 8.412,-2.327 7.729,-3.1 6.877,-3.516 5.857,-3.577 4.837,-3.638 3.938,-3.325 3.162,-2.639 2.717,-2.246 2.392,-1.78 2.185,-1.244 L 1.18,1.335 Z" id="path4828" fill="#bbd3dc" fill-opacity="1" fill-rule="nonzero" stroke="none"></path></g><g id="g4830" transform="translate(1982.1745,608.30193)"><path d="M 0,0 -2.524,2.559 C -2.981,3.022 -3.391,3.076 -3.75,2.721 -4.113,2.362 -4.066,1.952 -3.608,1.488 l 2.524,-2.557 c 0.457,-0.464 0.867,-0.517 1.23,-0.158 C 0.507,-0.871 0.457,-0.463 0,0 M 0.077,4.249 1.724,2.581 C 2.683,1.609 3.198,0.604 3.271,-0.438 3.343,-1.479 2.962,-2.41 2.128,-3.234 1.294,-4.057 0.356,-4.427 -0.686,-4.343 -1.728,-4.258 -2.728,-3.73 -3.687,-2.76 l -1.645,1.668 c -0.959,0.972 -1.475,1.98 -1.547,3.024 -0.072,1.045 0.309,1.979 1.143,2.802 0.834,0.823 1.771,1.191 2.813,1.103 1.042,-0.088 2.042,-0.617 3,-1.588" id="path4832" fill="#bbd3dc" fill-opacity="1" fill-rule="nonzero" stroke="none"></path></g><g id="g4834" transform="translate(1974.3825,596.46503)"><path d="M 0,0 -6.958,8.081 -4.685,10.038 0.627,3.87 -0.089,6.737 -0.587,6.31 -2.101,8.067 1.055,10.784 3.547,3.054 Z" id="path4836" fill="#bbd3dc" fill-opacity="1" fill-rule="nonzero" stroke="none"></path></g><g id="g4838" transform="translate(1962.2546,601.03823)"><path d="m 0,0 2.84,0.888 1.831,-5.911 c 0.054,-0.167 0.121,-0.305 0.202,-0.415 0.169,-0.224 0.398,-0.355 0.687,-0.393 0.288,-0.038 0.546,0.029 0.776,0.201 0.229,0.171 0.362,0.4 0.399,0.685 C 6.772,-4.66 6.704,-4.4 6.529,-4.168 6.351,-3.93 6.121,-3.79 5.839,-3.748 5.557,-3.705 5.299,-3.771 5.065,-3.946 5.015,-3.984 4.942,-4.051 4.846,-4.149 l -0.823,3.21 c 1.178,0.277 2.148,0.314 2.91,0.109 0.761,-0.203 1.42,-0.677 1.975,-1.419 0.691,-0.921 0.957,-1.935 0.8,-3.042 C 9.551,-6.397 9.014,-7.295 8.097,-7.98 7.229,-8.631 6.234,-8.881 5.109,-8.73 3.985,-8.58 3.104,-8.08 2.468,-7.229 2.171,-6.833 1.861,-6.102 1.538,-5.036 Z" id="path4840" fill="#bbd3dc" fill-opacity="1" fill-rule="nonzero" stroke="none"></path></g><g id="g4842" transform="translate(1964.2653,588.68663)"><path d="M 0,0 -2.894,-0.691 -4.317,5.33 C -4.355,5.504 -4.41,5.645 -4.48,5.754 -4.633,5.99 -4.853,6.137 -5.138,6.194 -5.423,6.252 -5.686,6.203 -5.926,6.047 -6.167,5.891 -6.315,5.672 -6.372,5.391 -6.428,5.109 -6.377,4.846 -6.219,4.602 c 0.158,-0.247 0.377,-0.399 0.656,-0.46 0.279,-0.062 0.539,-0.015 0.779,0.141 0.056,0.036 0.137,0.1 0.239,0.192 l 0.596,-3.264 c -1.188,-0.197 -2.155,-0.167 -2.903,0.09 -0.747,0.258 -1.371,0.774 -1.872,1.548 -0.628,0.97 -0.826,2.003 -0.593,3.096 0.231,1.093 0.828,1.951 1.79,2.575 0.91,0.587 1.92,0.769 3.031,0.543 1.112,-0.227 1.956,-0.786 2.534,-1.678 0.266,-0.41 0.525,-1.161 0.778,-2.251 z" id="path4844" fill="#bbd3dc" fill-opacity="1" fill-rule="nonzero" stroke="none"></path></g><g id="g4846" transform="translate(1947.8151,587.70623)"><path d="M 0,0 3.872,2.152 C 4.04,1.988 4.17,1.826 4.261,1.662 4.388,1.434 4.471,1.188 4.51,0.924 L 3.212,0.203 C 3.584,-0.252 4.009,-0.346 4.487,-0.08 4.806,0.096 4.99,0.376 5.04,0.758 5.09,1.141 4.997,1.543 4.762,1.967 4.517,2.408 4.221,2.712 3.876,2.877 3.53,3.043 3.201,3.039 2.887,2.864 2.632,2.723 2.457,2.459 2.361,2.072 l -2.425,0.94 C 0.318,3.922 0.924,4.607 1.752,5.066 2.763,5.629 3.801,5.762 4.865,5.465 5.929,5.168 6.739,4.52 7.296,3.518 7.85,2.521 7.971,1.485 7.658,0.412 7.346,-0.661 6.685,-1.479 5.674,-2.04 4.686,-2.589 3.67,-2.714 2.625,-2.416 1.58,-2.117 0.785,-1.477 0.238,-0.492 0.183,-0.393 0.104,-0.229 0,0" id="path4848" fill="#bbd3dc" fill-opacity="1" fill-rule="nonzero" stroke="none"></path></g><g id="g4850" transform="translate(1948.5104,579.66913)"><path d="m 0,0 -2.96,-0.295 -0.6,6.158 C -3.573,6.041 -3.608,6.189 -3.664,6.307 -3.783,6.561 -3.98,6.736 -4.256,6.831 -4.53,6.926 -4.798,6.913 -5.058,6.791 -5.316,6.67 -5.493,6.473 -5.587,6.201 -5.681,5.93 -5.666,5.662 -5.542,5.398 c 0.124,-0.264 0.32,-0.445 0.588,-0.544 0.268,-0.098 0.532,-0.086 0.791,0.035 0.061,0.029 0.148,0.082 0.263,0.158 l 0.15,-3.313 c -1.203,-0.037 -2.157,0.123 -2.863,0.48 -0.705,0.356 -1.254,0.951 -1.647,1.785 -0.491,1.046 -0.549,2.096 -0.172,3.147 0.377,1.053 1.084,1.823 2.121,2.311 0.981,0.461 2.006,0.504 3.078,0.129 1.071,-0.373 1.832,-1.041 2.284,-2.003 0.208,-0.442 0.364,-1.222 0.468,-2.335 z" id="path4852" fill="#bbd3dc" fill-opacity="1" fill-rule="nonzero" stroke="none"></path></g><g id="g4854" transform="translate(1940.0778,575.92693)"><path d="M 0,0 -2.974,-0.09 -3.147,6.095 C -3.15,6.272 -3.175,6.422 -3.222,6.543 -3.323,6.806 -3.509,6.994 -3.776,7.107 -4.044,7.222 -4.312,7.227 -4.578,7.123 -4.846,7.02 -5.035,6.835 -5.147,6.57 -5.26,6.307 -5.264,6.038 -5.157,5.766 c 0.105,-0.272 0.288,-0.465 0.549,-0.582 0.26,-0.118 0.524,-0.123 0.791,-0.02 0.063,0.024 0.154,0.07 0.272,0.139 L -3.622,1.988 c -1.203,0.047 -2.144,0.272 -2.823,0.676 -0.68,0.403 -1.187,1.035 -1.52,1.895 -0.419,1.077 -0.404,2.128 0.045,3.151 0.448,1.024 1.207,1.743 2.275,2.158 1.01,0.393 2.036,0.365 3.079,-0.082 1.043,-0.446 1.755,-1.165 2.14,-2.156 0.178,-0.456 0.28,-1.243 0.307,-2.362 z" id="path4856" fill="#bbd3dc" fill-opacity="1" fill-rule="nonzero" stroke="none"></path></g><g id="g4858" transform="translate(1931.4245,572.77843)"><path d="m 0,0 -2.973,0.114 0.252,6.183 C -2.711,6.475 -2.725,6.625 -2.764,6.749 -2.847,7.018 -3.019,7.219 -3.278,7.35 -3.537,7.482 -3.804,7.506 -4.077,7.42 -4.351,7.336 -4.553,7.165 -4.683,6.908 -4.813,6.652 -4.835,6.386 -4.748,6.107 -4.661,5.828 -4.492,5.622 -4.24,5.488 c 0.252,-0.134 0.514,-0.16 0.788,-0.074 0.064,0.02 0.158,0.061 0.281,0.12 L -3.477,2.231 c -1.196,0.13 -2.12,0.419 -2.769,0.869 -0.65,0.45 -1.112,1.115 -1.387,1.995 -0.343,1.104 -0.256,2.151 0.262,3.141 0.518,0.991 1.325,1.657 2.419,1.996 1.034,0.323 2.056,0.225 3.065,-0.293 1.01,-0.517 1.672,-1.284 1.988,-2.298 0.145,-0.467 0.193,-1.26 0.142,-2.377 z" id="path4860" fill="#bbd3dc" fill-opacity="1" fill-rule="nonzero" stroke="none"></path></g><g id="g4862" transform="translate(1919.3161,574.49133)"><path d="M 0,0 -0.749,2.969 0.516,3.288 -0.219,6.197 2.614,6.912 4.233,0.496 C 4.416,-0.227 4.447,-0.873 4.329,-1.446 4.18,-2.177 3.838,-2.828 3.303,-3.401 2.769,-3.974 2.155,-4.348 1.463,-4.522 l -0.305,-0.069 -0.749,2.97 c 0.067,0.011 0.115,0.02 0.146,0.028 0.358,0.091 0.605,0.28 0.739,0.566 0.135,0.286 0.146,0.648 0.036,1.088 L 1.265,0.318 Z" id="path4864" fill="#bbd3dc" fill-opacity="1" fill-rule="nonzero" stroke="none"></path></g><g id="g4866" transform="translate(1912.0544,568.31943)"><path d="M 0,0 1.003,11.061 4.185,11.682 3.271,3.758 6.476,4.384 7.063,1.378 Z" id="path4868" fill="#bbd3dc" fill-opacity="1" fill-rule="nonzero" stroke="none"></path></g><g id="g4870" transform="translate(1901.8317,574.61343)"><path d="M 0,0 -0.383,3.062 6.455,3.915 3.854,-2.881 3.766,-3.112 C 3.693,-3.295 3.668,-3.469 3.688,-3.634 3.741,-4.053 4.013,-4.231 4.503,-4.17 c 0.191,0.024 0.35,0.115 0.474,0.275 0.125,0.161 0.174,0.336 0.151,0.527 -0.027,0.218 -0.145,0.402 -0.353,0.555 L 5.83,-0.226 C 6.442,-0.506 6.935,-0.899 7.308,-1.403 7.681,-1.908 7.907,-2.488 7.989,-3.145 8.116,-4.163 7.866,-5.08 7.238,-5.896 6.61,-6.711 5.787,-7.183 4.769,-7.31 3.746,-7.438 2.831,-7.187 2.026,-6.558 1.221,-5.929 0.754,-5.1 0.625,-4.071 c -0.073,0.589 -0.01,1.153 0.19,1.693 L 1.768,0.22 Z" id="path4872" fill="#bbd3dc" fill-opacity="1" fill-rule="nonzero" stroke="none"></path></g><g id="g4874" transform="translate(1894.8835,568.46693)"><path d="m 0,0 c 0,-0.495 -0.4,-0.896 -0.896,-0.896 h -5.208 c -0.495,0 -0.895,0.401 -0.895,0.896 v 5.209 c 0,0.495 0.4,0.895 0.895,0.895 h 5.208 C -0.4,6.104 0,5.704 0,5.209 Z" id="path4876" fill="#bbd3dc" fill-opacity="1" fill-rule="nonzero" stroke="none"></path></g></g></g></g></svg>