<?xml version="1.0" encoding="UTF-8"?><svg xmlns:dc="http://purl.org/dc/elements/1.1/" xmlns:cc="http://creativecommons.org/ns#" xmlns:rdf="http://www.w3.org/1999/02/22-rdf-syntax-ns#" xmlns:svg="http://www.w3.org/2000/svg" xmlns="http://www.w3.org/2000/svg" xmlns:sodipodi="http://sodipodi.sourceforge.net/DTD/sodipodi-0.dtd" xmlns:inkscape="http://www.inkscape.org/namespaces/inkscape" width="350" height="350" version="1.2" baseProfile="tiny-ps"><title>/Users/dle/Downloads/logo_be-oi-white-faded-recropped2.svg</title><defs id="defs16536"><clipPath clipPathUnits="userSpaceOnUse" id="clipPath4884"><path d="M 0,824 H 2824.875 V 0 H 0 Z" id="path4886"></path></clipPath><clipPath clipPathUnits="userSpaceOnUse" id="clipPath4122"><path d="M 0,824 H 2824.875 V 0 H 0 Z" id="path4124"></path></clipPath><clipPath clipPathUnits="userSpaceOnUse" id="clipPath4138"><path d="m 1981.9,577.387 h 55.05 v -10.051 h -55.05 z" id="path4140"></path></clipPath></defs><metadata></metadata><g id="layer3"><rect id="rect4128" width="355.55554" height="351.85184" x="-3.7037036" y="0" fill="#ffffff" fill-opacity="1" stroke="#f2f2f2"></rect></g><g id="layer1" transform="translate(-5.077475,-581.61335)"><g id="g4120" transform="matrix(1.25,0,0,-1.25,-2183.0239,1584.8425)"><path d="m 2030.4636,677.11773 c 0,27.259 -7.878,53.662 -22.781,76.353 -2.728,4.153 -8.308,5.311 -12.463,2.581 -4.155,-2.728 -5.311,-8.309 -2.582,-12.463 9.802,-14.923 16.105,-31.697 18.603,-49.245 -3.721,13.907 -9.856,27.106 -18.271,39.092 -14.381,20.483 -34.299,35.994 -57.601,44.854 -4.643,1.766 -9.844,-0.567 -11.611,-5.213 -1.767,-4.646 0.567,-9.844 5.213,-11.611 28.333,-10.774 50.227,-33.196 61.044,-60.502 -11.408,21.828 -29.934,39.765 -53.289,50.219 -4.534,2.03 -9.861,0 -11.892,-4.537 -2.03,-4.536 10e-4,-9.861 4.538,-11.891 33.619,-15.05 55.342,-48.566 55.342,-85.387 0,-50.75 -40.643,-92.187 -91.09,-93.47 -0.802,-0.017 -1.605,-0.03 -2.411,-0.03 -0.806,0 -1.609,0.013 -2.411,0.03 -50.445,1.283 -91.089,42.72 -91.089,93.47 0,35.44 19.652,67.417 51.288,83.454 4.434,2.247 6.206,7.663 3.958,12.097 -2.247,4.435 -7.668,6.206 -12.097,3.958 -21.044,-10.668 -37.635,-27.258 -48.196,-47.177 10.006,24.833 29.213,45.564 54.375,57.082 4.52,2.069 6.506,7.41 4.438,11.929 -2.071,4.52 -7.412,6.508 -11.93,4.437 -34.199,-15.655 -59.002,-45.861 -68.416,-81.245 2.563,18.538 9.354,36.183 20.047,51.756 2.813,4.098 1.771,9.7 -2.326,12.514 -4.097,2.812 -9.7,1.773 -12.514,-2.326 -15.947,-23.228 -24.377,-50.452 -24.377,-78.729 0,-75.712 60.738,-137.5 136.047,-139.209 1.064,-0.027 2.132,-0.041 3.203,-0.041 1.071,0 2.139,0.014 3.203,0.041 75.31,1.709 136.048,63.497 136.048,139.209" id="path4128" fill="#416e86" fill-opacity="1" fill-rule="nonzero" stroke="none"></path><g id="g4150" transform="translate(1943.3366,610.16853)"><path d="m 0,0 c -2.871,0 -5.203,2.331 -5.203,5.212 0,2.876 2.332,5.212 5.203,5.212 2.879,0 5.21,-2.336 5.21,-5.212 C 5.21,2.331 2.879,0 0,0 m -105.523,20.286 v 60.303 c 0,2.767 2.257,5.025 5.025,5.025 H 0.004 c 2.768,0 5.024,-2.258 5.024,-5.025 V 20.286 c 0,-2.766 -2.256,-5.025 -5.024,-5.025 h -100.502 c -2.768,0 -5.025,2.259 -5.025,5.025 M 0.004,95.664 h -100.502 c -8.324,0 -15.076,-6.752 -15.076,-15.075 V 10.237 c 0,-8.323 6.752,-15.076 15.076,-15.076 h 35.175 v -5.025 c 0,-2.768 2.259,-5.026 5.025,-5.026 h 20.102 c 2.766,0 5.024,2.592 5.024,5.026 v 5.025 H 0.004 c 8.323,0 15.075,6.753 15.075,15.076 v 70.352 c 0,8.323 -6.752,15.075 -15.075,15.075" id="path4152" fill="#437e9e" fill-opacity="1" fill-rule="nonzero" stroke="none"></path></g><g id="g4154" transform="translate(1943.3366,620.59233)"><path d="m 0,0 c 2.879,0 5.21,-2.336 5.21,-5.212 0,-2.881 -2.331,-5.212 -5.21,-5.212 -2.871,0 -5.203,2.331 -5.203,5.212 C -5.203,-2.336 -2.871,0 0,0 m -35.172,-20.288 v 5.025 H 0.004 c 8.323,0 15.075,6.753 15.075,15.076 v 70.352 c 0,8.323 -6.752,15.075 -15.075,15.075 h -18.732 l -3.71,-10.05 H 0.004 c 2.768,0 5.024,-2.257 5.024,-5.025 V 9.862 C 5.028,7.096 2.772,4.837 0.004,4.837 h -48.412 l -11.129,-30.15 h 19.341 c 2.766,0 5.024,2.591 5.024,5.025" id="path4156" fill="#406e86" fill-opacity="1" fill-rule="nonzero" stroke="none"></path></g><g id="g4158" transform="translate(1856.3347,674.09333)"><path d="m 0,0 v -16.755 c 0,-2.721 0.979,-4.081 2.934,-4.081 0.834,0 1.541,0.283 2.122,0.851 0.581,0.567 0.872,1.255 0.872,2.061 0,0.834 -0.274,1.534 -0.821,2.103 -0.546,0.566 -1.216,0.85 -2.009,0.85 -0.561,0 -1.203,-0.246 -1.928,-0.738 v 8.449 c 0.902,0.082 1.586,0.123 2.051,0.123 2.884,0 5.355,-1.039 7.413,-3.117 2.057,-2.078 3.087,-4.58 3.087,-7.506 0,-2.994 -1.047,-5.516 -3.139,-7.567 -2.092,-2.051 -4.662,-3.076 -7.711,-3.076 -1.531,0 -3.024,0.335 -4.48,1.005 -1.456,0.669 -2.657,1.572 -3.6,2.707 -1.641,1.968 -2.461,4.518 -2.461,7.649 V 0 Z" id="path4160" fill="#406e86" fill-opacity="1" fill-rule="nonzero" stroke="none"></path></g><g id="g4162" transform="translate(1893.5154,655.08253)"><path d="m 0,0 h -11.628 c -0.178,0.588 -0.266,1.128 -0.266,1.62 0,0.684 0.123,1.354 0.37,2.01 h 3.896 c -0.273,1.517 -1.129,2.276 -2.564,2.276 -0.957,0 -1.737,-0.407 -2.338,-1.22 -0.602,-0.814 -0.903,-1.856 -0.903,-3.127 0,-1.327 0.291,-2.4 0.872,-3.22 0.582,-0.82 1.343,-1.231 2.287,-1.231 0.765,0 1.503,0.383 2.214,1.149 l 4.37,-5.25 c -2.038,-1.6 -4.301,-2.4 -6.789,-2.4 -3.036,0 -5.584,1.019 -7.649,3.056 -2.064,2.037 -3.098,4.56 -3.098,7.567 0,2.995 1.043,5.524 3.128,7.588 2.085,2.065 4.646,3.097 7.681,3.097 2.967,0 5.458,-1.009 7.475,-3.024 C -0.926,6.873 0.082,4.389 0.082,1.436 0.082,1.135 0.055,0.656 0,0" id="path4164" fill="#406e86" fill-opacity="1" fill-rule="nonzero" stroke="none"></path></g><g id="g4166" transform="translate(1910.2907,666.54643)"><path d="m 0,0 c -1.709,0 -3.165,-0.629 -4.368,-1.887 -1.203,-1.258 -1.805,-2.775 -1.805,-4.552 0,-1.778 0.605,-3.295 1.816,-4.553 1.209,-1.258 2.662,-1.887 4.357,-1.887 1.723,0 3.182,0.626 4.379,1.876 1.195,1.252 1.794,2.773 1.794,4.564 0,1.791 -0.599,3.311 -1.794,4.563 C 3.182,-0.626 1.723,0 0,0 m 0.246,8.244 c 3.965,0 7.365,-1.442 10.203,-4.327 2.836,-2.885 4.255,-6.337 4.255,-10.356 0,-4.088 -1.429,-7.561 -4.286,-10.418 -2.857,-2.858 -6.33,-4.287 -10.418,-4.287 -4.061,0 -7.526,1.436 -10.397,4.307 -2.872,2.871 -4.307,6.337 -4.307,10.398 0,4.101 1.446,7.574 4.337,10.418 2.892,2.843 6.429,4.265 10.613,4.265" id="path4168" fill="#406e86" fill-opacity="1" fill-rule="nonzero" stroke="none"></path></g><path d="m 1937.2386,646.09973 h -8.326 v 27.993 h 8.326 z" id="path4170" fill="#406e86" fill-opacity="1" fill-rule="nonzero" stroke="none"></path></g></g></svg>